<?xml version="1.0" encoding="UTF-8" standalone="no"?><svg xmlns="http://www.w3.org/2000/svg" xmlns:xlink="http://www.w3.org/1999/xlink" contentScriptType="application/ecmascript" contentStyleType="text/css" height="343px" preserveAspectRatio="none" style="width:1938px;height:343px;" version="1.1" viewBox="0 0 1938 343" width="1938px" zoomAndPan="magnify"><defs><filter height="300%" id="fxapxz2xec73c" width="300%" x="-1" y="-1"><feGaussianBlur result="blurOut" stdDeviation="2.0"/><feColorMatrix in="blurOut" result="blurOut2" type="matrix" values="0 0 0 0 0 0 0 0 0 0 0 0 0 0 0 0 0 0 .4 0"/><feOffset dx="4.0" dy="4.0" in="blurOut2" result="blurOut3"/><feBlend in="SourceGraphic" in2="blurOut3" mode="normal"/></filter></defs><g><!--MD5=[e2f546e2d0ddfdac8e8429f573399cff]
cluster ibd [System] Ventilator Splitter Assembly [Air flow] --><rect fill="#FFFFFF" filter="url(#fxapxz2xec73c)" height="316" style="stroke: #000000; stroke-width: 1.5;" width="1913" x="14" y="16"/><path d="M402,17 L402,25.29 L392,35.29 L14,35.29 " fill="none" style="stroke: #000000; stroke-width: 1.5;"/><text fill="#000000" font-family="sans-serif" font-size="14" font-weight="bold" lengthAdjust="spacingAndGlyphs" textLength="373" x="17" y="30.3369">ibd [System] Ventilator Splitter Assembly [Air flow]</text><!--MD5=[f7db059fb94f3f154cd750cda42c626c]
cluster ventilator--><rect fill="#FFFFFF" filter="url(#fxapxz2xec73c)" height="202" style="stroke: #000000; stroke-width: 1.5;" width="146" x="22" y="68"/><rect fill="#FFFFFF" height="10" style="stroke: #000000; stroke-width: 1.5;" width="15" x="148" y="73"/><rect fill="#FFFFFF" height="2" style="stroke: #000000; stroke-width: 1.5;" width="4" x="146" y="75"/><rect fill="#FFFFFF" height="2" style="stroke: #000000; stroke-width: 1.5;" width="4" x="146" y="79"/><text fill="#000000" font-family="sans-serif" font-size="14" font-style="italic" lengthAdjust="spacingAndGlyphs" textLength="79" x="55.5" y="94.3027">«ventilator»</text><text fill="#000000" font-family="sans-serif" font-size="14" font-weight="bold" lengthAdjust="spacingAndGlyphs" textLength="73" x="58.5" y="110.627">LTV-1200</text><!--MD5=[fdc5e125a70ff30a57906774a93a0bb5]
cluster vsb--><rect fill="#FFFFFF" filter="url(#fxapxz2xec73c)" height="281" style="stroke: #000000; stroke-width: 1.5;" width="1063" x="439" y="43"/><rect fill="#FFFFFF" height="10" style="stroke: #000000; stroke-width: 1.5;" width="15" x="1482" y="48"/><rect fill="#FFFFFF" height="2" style="stroke: #000000; stroke-width: 1.5;" width="4" x="1480" y="50"/><rect fill="#FFFFFF" height="2" style="stroke: #000000; stroke-width: 1.5;" width="4" x="1480" y="54"/><text fill="#000000" font-family="sans-serif" font-size="14" font-style="italic" lengthAdjust="spacingAndGlyphs" textLength="51" x="945" y="69.3027">«block»</text><text fill="#000000" font-family="sans-serif" font-size="14" font-weight="bold" lengthAdjust="spacingAndGlyphs" textLength="205" x="868" y="85.627">Ventilator Splitter Assembly</text><!--MD5=[320cb30c242bc5a52e1169868a9af79a]
entity patient--><ellipse cx="1888" cy="214.79" fill="#FEFECE" filter="url(#fxapxz2xec73c)" rx="8" ry="8" style="stroke: #A80036; stroke-width: 1.5;"/><path d="M1888,222.79 L1888,249.79 M1875,230.79 L1901,230.79 M1888,249.79 L1875,264.79 M1888,249.79 L1901,264.79 " fill="none" filter="url(#fxapxz2xec73c)" style="stroke: #A80036; stroke-width: 1.5;"/><text fill="#000000" font-family="sans-serif" font-size="14" font-weight="bold" lengthAdjust="spacingAndGlyphs" textLength="51" x="1862.5" y="283.627">patient</text><text fill="#000000" font-family="sans-serif" font-size="14" font-style="italic" lengthAdjust="spacingAndGlyphs" textLength="62" x="1857" y="202.3027">«human»</text><!--MD5=[aa9e818d8b3d85ba9128efa079c533d2]
entity armIn--><rect fill="#FEFECE" filter="url(#fxapxz2xec73c)" height="52.5801" style="stroke: #A80036; stroke-width: 1.5;" width="167" x="220" y="111.5"/><rect fill="#FEFECE" height="5" style="stroke: #A80036; stroke-width: 1.5;" width="10" x="215" y="116.5"/><rect fill="#FEFECE" height="5" style="stroke: #A80036; stroke-width: 1.5;" width="10" x="215" y="154.0801"/><text fill="#000000" font-family="sans-serif" font-size="14" font-style="italic" lengthAdjust="spacingAndGlyphs" textLength="121" x="243" y="134.8027">«Inspiratory Arm»</text><text fill="#000000" font-family="sans-serif" font-size="14" font-weight="bold" lengthAdjust="spacingAndGlyphs" textLength="147" x="230" y="151.127">Inspiratory Arm P/N</text><!--MD5=[b1df6f14fff975f4c9690eefa5c4bfe4]
entity armOut--><rect fill="#FEFECE" filter="url(#fxapxz2xec73c)" height="52.5801" style="stroke: #A80036; stroke-width: 1.5;" width="161" x="223" y="245.5"/><rect fill="#FEFECE" height="5" style="stroke: #A80036; stroke-width: 1.5;" width="10" x="218" y="250.5"/><rect fill="#FEFECE" height="5" style="stroke: #A80036; stroke-width: 1.5;" width="10" x="218" y="288.0801"/><text fill="#000000" font-family="sans-serif" font-size="14" font-style="italic" lengthAdjust="spacingAndGlyphs" textLength="118" x="244.5" y="268.8027">«Expiratory Arm»</text><text fill="#000000" font-family="sans-serif" font-size="14" font-weight="bold" lengthAdjust="spacingAndGlyphs" textLength="141" x="233" y="285.127">Expiratory Arm P/N</text><!--MD5=[727104f7659a26c267f84f5527a74fa2]
entity arm2patIn--><rect fill="#FEFECE" filter="url(#fxapxz2xec73c)" height="52.5801" style="stroke: #A80036; stroke-width: 1.5;" width="243" x="1554" y="141.5"/><rect fill="#FEFECE" height="5" style="stroke: #A80036; stroke-width: 1.5;" width="10" x="1549" y="146.5"/><rect fill="#FEFECE" height="5" style="stroke: #A80036; stroke-width: 1.5;" width="10" x="1549" y="184.0801"/><text fill="#000000" font-family="sans-serif" font-size="14" font-style="italic" lengthAdjust="spacingAndGlyphs" textLength="121" x="1615" y="164.8027">«Inspiratory Arm»</text><text fill="#000000" font-family="sans-serif" font-size="14" font-weight="bold" lengthAdjust="spacingAndGlyphs" textLength="223" x="1564" y="181.127">Inspiratory Arm to patient P/N</text><!--MD5=[87b1f60899d0c7e84ff6b99d50a6d53d]
entity arm2patOut--><rect fill="#FEFECE" filter="url(#fxapxz2xec73c)" height="52.5801" style="stroke: #A80036; stroke-width: 1.5;" width="237" x="1557" y="229.5"/><rect fill="#FEFECE" height="5" style="stroke: #A80036; stroke-width: 1.5;" width="10" x="1552" y="234.5"/><rect fill="#FEFECE" height="5" style="stroke: #A80036; stroke-width: 1.5;" width="10" x="1552" y="272.0801"/><text fill="#000000" font-family="sans-serif" font-size="14" font-style="italic" lengthAdjust="spacingAndGlyphs" textLength="118" x="1616.5" y="252.8027">«Expiratory Arm»</text><text fill="#000000" font-family="sans-serif" font-size="14" font-weight="bold" lengthAdjust="spacingAndGlyphs" textLength="217" x="1567" y="269.127">Expiratory Arm to patient P/N</text><!--MD5=[5986141c496af38c6ae6a67c72b97400]
entity pOut--><ellipse cx="95" cy="233" fill="#FEFECE" filter="url(#fxapxz2xec73c)" rx="8" ry="8" style="stroke: #A80036; stroke-width: 2.0;"/><text fill="#000000" font-family="sans-serif" font-size="14" font-weight="bold" lengthAdjust="spacingAndGlyphs" textLength="108" x="41" y="263.3369">Expiratory Port</text><!--MD5=[ff8bf2a3348c5e3e02cbef032d803913]
entity pIn--><ellipse cx="95" cy="140" fill="#FEFECE" filter="url(#fxapxz2xec73c)" rx="8" ry="8" style="stroke: #A80036; stroke-width: 2.0;"/><text fill="#000000" font-family="sans-serif" font-size="14" font-weight="bold" lengthAdjust="spacingAndGlyphs" textLength="114" x="38" y="170.3369">Inspiratory Port</text><!--MD5=[dde16d280d1ccdf194689a6521414395]
entity vsbIn--><rect fill="#FEFECE" filter="url(#fxapxz2xec73c)" height="52.5801" style="stroke: #A80036; stroke-width: 1.5;" width="156" x="637" y="86.5"/><rect fill="#FEFECE" height="5" style="stroke: #A80036; stroke-width: 1.5;" width="10" x="632" y="91.5"/><rect fill="#FEFECE" height="5" style="stroke: #A80036; stroke-width: 1.5;" width="10" x="632" y="129.0801"/><text fill="#000000" font-family="sans-serif" font-size="14" font-style="italic" lengthAdjust="spacingAndGlyphs" textLength="51" x="689.5" y="109.8027">«block»</text><text fill="#000000" font-family="sans-serif" font-size="14" font-weight="bold" lengthAdjust="spacingAndGlyphs" textLength="136" x="647" y="126.127">Inspiratory Section</text><!--MD5=[96e51b74cc925c600e89216052e71526]
entity vsbOut--><rect fill="#FEFECE" filter="url(#fxapxz2xec73c)" height="52.5801" style="stroke: #A80036; stroke-width: 1.5;" width="150" x="640" y="262.5"/><rect fill="#FEFECE" height="5" style="stroke: #A80036; stroke-width: 1.5;" width="10" x="635" y="267.5"/><rect fill="#FEFECE" height="5" style="stroke: #A80036; stroke-width: 1.5;" width="10" x="635" y="305.0801"/><text fill="#000000" font-family="sans-serif" font-size="14" font-style="italic" lengthAdjust="spacingAndGlyphs" textLength="51" x="689.5" y="285.8027">«block»</text><text fill="#000000" font-family="sans-serif" font-size="14" font-weight="bold" lengthAdjust="spacingAndGlyphs" textLength="130" x="650" y="302.127">Expiratory Section</text><!--MD5=[10d8a4dbe12dd16fea163ce3d6044365]
entity vsbpIn--><ellipse cx="512" cy="118" fill="#FEFECE" filter="url(#fxapxz2xec73c)" rx="8" ry="8" style="stroke: #A80036; stroke-width: 2.0;"/><text fill="#000000" font-family="sans-serif" font-size="14" font-weight="bold" lengthAdjust="spacingAndGlyphs" textLength="114" x="455" y="148.3369">Inspiratory Port</text><!--MD5=[7779b6b7b417fcab36c1e258e412925b]
entity vsbpOut--><ellipse cx="512" cy="277" fill="#FEFECE" filter="url(#fxapxz2xec73c)" rx="8" ry="8" style="stroke: #A80036; stroke-width: 2.0;"/><text fill="#000000" font-family="sans-serif" font-size="14" font-weight="bold" lengthAdjust="spacingAndGlyphs" textLength="108" x="458" y="307.3369">Expiratory Port</text><!--MD5=[ecb2462e2bd49757390f7a9519642674]
entity bc--><rect fill="#FEFECE" filter="url(#fxapxz2xec73c)" height="52.5801" style="stroke: #A80036; stroke-width: 1.5;" width="136" x="647" y="174.5"/><rect fill="#FEFECE" height="5" style="stroke: #A80036; stroke-width: 1.5;" width="10" x="642" y="179.5"/><rect fill="#FEFECE" height="5" style="stroke: #A80036; stroke-width: 1.5;" width="10" x="642" y="217.0801"/><text fill="#000000" font-family="sans-serif" font-size="14" font-style="italic" lengthAdjust="spacingAndGlyphs" textLength="88" x="671" y="197.8027">«bias circuit»</text><text fill="#000000" font-family="sans-serif" font-size="14" font-weight="bold" lengthAdjust="spacingAndGlyphs" textLength="116" x="657" y="214.127">Bias Circuit P/N</text><!--MD5=[014484fcae578ef1ebb9fb047866c562]
entity vIn1--><rect fill="#FEFECE" filter="url(#fxapxz2xec73c)" height="52.5801" style="stroke: #A80036; stroke-width: 1.5;" width="144" x="914" y="125.5"/><rect fill="#FEFECE" height="5" style="stroke: #A80036; stroke-width: 1.5;" width="10" x="909" y="130.5"/><rect fill="#FEFECE" height="5" style="stroke: #A80036; stroke-width: 1.5;" width="10" x="909" y="168.0801"/><text fill="#000000" font-family="sans-serif" font-size="14" font-style="italic" lengthAdjust="spacingAndGlyphs" textLength="96" x="938" y="148.8027">«1-Way valve»</text><text fill="#000000" font-family="sans-serif" font-size="14" font-weight="bold" lengthAdjust="spacingAndGlyphs" textLength="124" x="924" y="165.127">1-Way Valve P/N</text><!--MD5=[03606ac6bddc0219af66c4819806073d]
entity fcIn1--><rect fill="#FEFECE" filter="url(#fxapxz2xec73c)" height="52.5801" style="stroke: #A80036; stroke-width: 1.5;" width="146" x="1129" y="128.5"/><rect fill="#FEFECE" height="5" style="stroke: #A80036; stroke-width: 1.5;" width="10" x="1124" y="133.5"/><rect fill="#FEFECE" height="5" style="stroke: #A80036; stroke-width: 1.5;" width="10" x="1124" y="171.0801"/><text fill="#000000" font-family="sans-serif" font-size="14" font-style="italic" lengthAdjust="spacingAndGlyphs" textLength="96" x="1154" y="151.8027">«flow control»</text><text fill="#000000" font-family="sans-serif" font-size="14" font-weight="bold" lengthAdjust="spacingAndGlyphs" textLength="126" x="1139" y="168.127">Flow Control P/N</text><!--MD5=[2ac64364a7681e86ea5dfad500fdd49e]
entity sIn1--><rect fill="#FEFECE" filter="url(#fxapxz2xec73c)" height="52.5801" style="stroke: #A80036; stroke-width: 1.5;" width="148" x="1346" y="133.5"/><rect fill="#FEFECE" height="5" style="stroke: #A80036; stroke-width: 1.5;" width="10" x="1341" y="138.5"/><rect fill="#FEFECE" height="5" style="stroke: #A80036; stroke-width: 1.5;" width="10" x="1341" y="176.0801"/><text fill="#000000" font-family="sans-serif" font-size="14" font-style="italic" lengthAdjust="spacingAndGlyphs" textLength="101" x="1369.5" y="156.8027">«shutoff valve»</text><text fill="#000000" font-family="sans-serif" font-size="14" font-weight="bold" lengthAdjust="spacingAndGlyphs" textLength="128" x="1356" y="173.127">Shutoff valve P/N</text><!--MD5=[3bff9e41180bb71d0a38d58cc35c0ef8]
entity vOut1--><rect fill="#FEFECE" filter="url(#fxapxz2xec73c)" height="52.5801" style="stroke: #A80036; stroke-width: 1.5;" width="144" x="914" y="257.5"/><rect fill="#FEFECE" height="5" style="stroke: #A80036; stroke-width: 1.5;" width="10" x="909" y="262.5"/><rect fill="#FEFECE" height="5" style="stroke: #A80036; stroke-width: 1.5;" width="10" x="909" y="300.0801"/><text fill="#000000" font-family="sans-serif" font-size="14" font-style="italic" lengthAdjust="spacingAndGlyphs" textLength="96" x="938" y="280.8027">«1-Way valve»</text><text fill="#000000" font-family="sans-serif" font-size="14" font-weight="bold" lengthAdjust="spacingAndGlyphs" textLength="124" x="924" y="297.127">1-Way Valve P/N</text><!--MD5=[3d8028e98d155234a69da598e0527a03]
entity psOut1--><rect fill="#FEFECE" filter="url(#fxapxz2xec73c)" height="52.5801" style="stroke: #A80036; stroke-width: 1.5;" width="168" x="1118" y="251.5"/><rect fill="#FEFECE" height="5" style="stroke: #A80036; stroke-width: 1.5;" width="10" x="1113" y="256.5"/><rect fill="#FEFECE" height="5" style="stroke: #A80036; stroke-width: 1.5;" width="10" x="1113" y="294.0801"/><text fill="#000000" font-family="sans-serif" font-size="14" font-style="italic" lengthAdjust="spacingAndGlyphs" textLength="124" x="1140" y="274.8027">«pressure sensor»</text><text fill="#000000" font-family="sans-serif" font-size="14" font-weight="bold" lengthAdjust="spacingAndGlyphs" textLength="148" x="1128" y="291.127">Pressure sensor P/N</text><!--MD5=[a1a1a7e96e2c267ef382cfdd34148837]
entity sOut1--><rect fill="#FEFECE" filter="url(#fxapxz2xec73c)" height="52.5801" style="stroke: #A80036; stroke-width: 1.5;" width="148" x="1346" y="240.5"/><rect fill="#FEFECE" height="5" style="stroke: #A80036; stroke-width: 1.5;" width="10" x="1341" y="245.5"/><rect fill="#FEFECE" height="5" style="stroke: #A80036; stroke-width: 1.5;" width="10" x="1341" y="283.0801"/><text fill="#000000" font-family="sans-serif" font-size="14" font-style="italic" lengthAdjust="spacingAndGlyphs" textLength="101" x="1369.5" y="263.8027">«shutoff valve»</text><text fill="#000000" font-family="sans-serif" font-size="14" font-weight="bold" lengthAdjust="spacingAndGlyphs" textLength="128" x="1356" y="280.127">Shutoff valve P/N</text><!--MD5=[954a2588d49bd3266af3fc35f0c9d8e9]
reverse link pOut to armOut--><path d="M109.3553,235.6852 C132.7034,240.0524 180.5616,249.0043 222.917,256.9269 " fill="none" id="pOut&lt;-armOut" style="stroke: #A80036; stroke-width: 1.0; stroke-dasharray: 7.0,7.0;"/><polygon fill="#A80036" points="104.228,234.7261,112.339,240.3128,109.1427,235.6455,113.8101,232.4492,104.228,234.7261" style="stroke: #A80036; stroke-width: 1.0;"/><!--MD5=[b92cb9b9e71ff36c2f177908f4e1992a]
link pIn to armIn--><path d="M104.228,139.9115 C123.7687,139.724 171.1156,139.2699 214.755,138.8513 " fill="none" id="pIn-&gt;armIn" style="stroke: #A80036; stroke-width: 1.0; stroke-dasharray: 7.0,7.0;"/><polygon fill="#A80036" points="219.7822,138.803,210.7442,134.8896,214.7824,138.851,210.821,142.8892,219.7822,138.803" style="stroke: #A80036; stroke-width: 1.0;"/><!--MD5=[0efc682130ae6a0f49fbd49741e1840d]
link vsbpOut to vsbOut--><path d="M521.25,277.5468 C542.1535,278.7825 594.732,281.8906 639.8486,284.5576 " fill="none" id="vsbpOut-vsbOut" style="stroke: #A80036; stroke-width: 1.0;"/><!--MD5=[010dcd3c7b926a790dd834671ef640fe]
link vsbpIn to vsbIn--><path d="M521.25,117.7722 C541.6881,117.2688 592.4065,116.0195 636.8245,114.9255 " fill="none" id="vsbpIn-vsbIn" style="stroke: #A80036; stroke-width: 1.0;"/><!--MD5=[07f47631917b2b4333c345ddcc905c81]
reverse link vsbOut to bc--><path d="M715,257.3606 C715,248.237 715,230.3333 715,230.3333 C715,230.3333 715,229.3021 715,227.6263 " fill="none" id="vsbOut&lt;-bc" style="stroke: #A80036; stroke-width: 1.0; stroke-dasharray: 7.0,7.0;"/><polygon fill="#A80036" points="715,262.3737,719,253.3737,715,257.3737,711,253.3737,715,262.3737" style="stroke: #A80036; stroke-width: 1.0;"/><!--MD5=[95450d3a5636606eac36468eeb7bb38b]
reverse link bc to vsbIn--><path d="M715,169.3606 C715,160.237 715,142.3333 715,142.3333 C715,142.3333 715,141.3021 715,139.6263 " fill="none" id="bc&lt;-vsbIn" style="stroke: #A80036; stroke-width: 1.0; stroke-dasharray: 7.0,7.0;"/><polygon fill="#A80036" points="715,174.3737,719,165.3737,715,169.3737,711,165.3737,715,174.3737" style="stroke: #A80036; stroke-width: 1.0;"/><!--MD5=[f363a06e34983ddc366098b51efd8a17]
link vsbIn to vIn1--><path d="M793.0209,124.2281 C829.2364,129.4399 872.1765,135.6195 908.3464,140.8248 " fill="none" id="vsbIn-&gt;vIn1" style="stroke: #A80036; stroke-width: 1.0; stroke-dasharray: 7.0,7.0;"/><polygon fill="#A80036" points="913.6322,141.5854,905.2938,136.3441,908.6832,140.8731,904.1542,144.2625,913.6322,141.5854" style="stroke: #A80036; stroke-width: 1.0;"/><!--MD5=[9cf7bba56298c39a3947768d997f71ae]
link vIn1 to fcIn1--><path d="M1058.2252,153.0031 C1079.23,153.2949 1102.2702,153.6149 1123.6337,153.9116 " fill="none" id="vIn1-&gt;fcIn1" style="stroke: #A80036; stroke-width: 1.0; stroke-dasharray: 7.0,7.0;"/><polygon fill="#A80036" points="1128.7375,153.9825,1119.794,149.8577,1123.738,153.9129,1119.6827,157.8569,1128.7375,153.9825" style="stroke: #A80036; stroke-width: 1.0;"/><!--MD5=[e536b37977eb2d9e8936ac89d11011d8]
link fcIn1 to sIn1--><path d="M1275.1973,156.6788 C1296.2678,157.1621 1319.3462,157.6914 1340.7642,158.1827 " fill="none" id="fcIn1-&gt;sIn1" style="stroke: #A80036; stroke-width: 1.0; stroke-dasharray: 7.0,7.0;"/><polygon fill="#A80036" points="1345.8814,158.3,1336.9755,154.0946,1340.8827,158.1853,1336.792,162.0925,1345.8814,158.3" style="stroke: #A80036; stroke-width: 1.0;"/><!--MD5=[a117ddecb9c66688c03f6d11cd2ca483]
reverse link vsbOut to vOut1--><path d="M795.1606,287.521 C832.8378,286.8259 877.4077,286.0035 913.9962,285.3285 " fill="none" id="vsbOut&lt;-vOut1" style="stroke: #A80036; stroke-width: 1.0; stroke-dasharray: 7.0,7.0;"/><polygon fill="#A80036" points="790.1287,287.6139,799.201,291.4471,795.1278,287.5216,799.0533,283.4485,790.1287,287.6139" style="stroke: #A80036; stroke-width: 1.0;"/><!--MD5=[a170a6fc73021a1b315dc5e09a1d526e]
reverse link vOut1 to psOut1--><path d="M1063.6483,281.8431 C1081.2514,281.3541 1100.0254,280.8326 1117.8823,280.3366 " fill="none" id="vOut1&lt;-psOut1" style="stroke: #A80036; stroke-width: 1.0; stroke-dasharray: 7.0,7.0;"/><polygon fill="#A80036" points="1058.2252,281.9937,1067.3329,285.742,1063.2233,281.8547,1067.1105,277.745,1058.2252,281.9937" style="stroke: #A80036; stroke-width: 1.0;"/><!--MD5=[6f4ec8b3c27ae957948be2dc749780b9]
reverse link psOut1 to sOut1--><path d="M1291.3737,273.4903 C1309.4939,272.576 1328.3625,271.6239 1345.8862,270.7397 " fill="none" id="psOut1&lt;-sOut1" style="stroke: #A80036; stroke-width: 1.0; stroke-dasharray: 7.0,7.0;"/><polygon fill="#A80036" points="1286.2845,273.7471,1295.4748,277.2881,1291.2781,273.495,1295.0713,269.2983,1286.2845,273.7471" style="stroke: #A80036; stroke-width: 1.0;"/><!--MD5=[b82a1b204ae3372ceaa9662bb19d0ec2]
link armIn to vsbpIn--><path d="M387.1036,129.9805 C428.8478,125.9762 475.193,121.5307 497.8977,119.3527 " fill="none" id="armIn-&gt;vsbpIn" style="stroke: #A80036; stroke-width: 1.0; stroke-dasharray: 7.0,7.0;"/><polygon fill="#A80036" points="502.888,118.8741,493.5471,115.752,497.9109,119.3517,494.3112,123.7154,502.888,118.8741" style="stroke: #A80036; stroke-width: 1.0;"/><!--MD5=[b22b4b948aad3c400e51fab38449d116]
reverse link armOut to vsbpOut--><path d="M389.2392,274.0561 C433.7851,275.1243 482.9896,276.3043 502.8985,276.7817 " fill="none" id="armOut&lt;-vsbpOut" style="stroke: #A80036; stroke-width: 1.0; stroke-dasharray: 7.0,7.0;"/><polygon fill="#A80036" points="384.1115,273.9331,393.0129,278.1479,389.1101,274.0531,393.2049,270.1503,384.1115,273.9331" style="stroke: #A80036; stroke-width: 1.0;"/><!--MD5=[6382e8b731f1c97230ccd3c6f6c96cca]
link sIn1 to arm2patIn--><path d="M1494.2444,162.3247 C1511.3483,162.8602 1530.0139,163.4447 1548.654,164.0283 " fill="none" id="sIn1-&gt;arm2patIn" style="stroke: #A80036; stroke-width: 1.0; stroke-dasharray: 7.0,7.0;"/><polygon fill="#A80036" points="1553.9094,164.1929,1545.0391,159.913,1548.9119,164.0363,1544.7886,167.9091,1553.9094,164.1929" style="stroke: #A80036; stroke-width: 1.0;"/><!--MD5=[a1e66b68f84625509881120cce09d44c]
link arm2patIn to patient--><path d="M1756.1401,194.5638 C1789.1892,205.4505 1825.7534,217.4953 1851.979,226.1343 " fill="none" id="arm2patIn-&gt;patient" style="stroke: #A80036; stroke-width: 1.0; stroke-dasharray: 7.0,7.0;"/><polygon fill="#A80036" points="1856.7524,227.7067,1849.4558,221.0916,1852.0034,226.1423,1846.9527,228.6899,1856.7524,227.7067" style="stroke: #A80036; stroke-width: 1.0;"/><!--MD5=[ef9b6071c14af2e50670e728b6719140]
reverse link sOut1 to arm2patOut--><path d="M1499.3404,263.5842 C1517.5583,262.7998 1537.3176,261.9491 1556.7951,261.1106 " fill="none" id="sOut1&lt;-arm2patOut" style="stroke: #A80036; stroke-width: 1.0; stroke-dasharray: 7.0,7.0;"/><polygon fill="#A80036" points="1494.2444,263.8036,1503.4082,267.4126,1499.2398,263.5885,1503.064,259.4201,1494.2444,263.8036" style="stroke: #A80036; stroke-width: 1.0;"/><!--MD5=[75294b9f8ded7b06d557f23194b2a4e8]
reverse link arm2patOut to patient--><path d="M1799.3257,245.5112 C1820.668,243.7034 1841.0372,241.978 1856.8589,240.6378 " fill="none" id="arm2patOut&lt;-patient" style="stroke: #A80036; stroke-width: 1.0; stroke-dasharray: 7.0,7.0;"/><polygon fill="#A80036" points="1794.1758,245.9475,1803.4813,249.1736,1799.158,245.5255,1802.8061,241.2022,1794.1758,245.9475" style="stroke: #A80036; stroke-width: 1.0;"/><!--MD5=[23fafb918e2a9a8643b1cfd4e6f32658]
@startuml
left to right direction
skinparam linetype polyline

frame "ibd [System] Ventilator Splitter Assembly [Air flow] " {

  actor "<b>patient</b>" <<human>> as patient

  component "<b>LTV-1200</b>" <<ventilator>> as ventilator {
    interface "<b>Expiratory Port</b>" as pOut
    interface "<b>Inspiratory Port</b>" as pIn
  }

  component "<b>Inspiratory Arm P/N</b>" <<Inspiratory Arm>> as armIn
  component "<b>Expiratory Arm P/N</b>" <<Expiratory Arm>> as armOut

  pOut <.. armOut
  pIn ..> armIn

  component "<b>Ventilator Splitter Assembly</b>" <<block>> as vsb {

component "<b>Inspiratory Section</b>" <<block>> as vsbIn
component "<b>Expiratory Section</b>" <<block>> as vsbOut
interface "<b>Inspiratory Port</b>" as vsbpIn
interface "<b>Expiratory Port</b>" as vsbpOut

component "<b>Bias Circuit P/N</b>" <<bias circuit>> as bc

component "<b>1-Way Valve P/N</b>" <<1-Way valve>> as vIn1
component "<b>Flow Control P/N</b>" <<flow control>> as fcIn1
component "<b>Shutoff valve P/N</b>" <<shutoff valve>> as sIn1

component "<b>1-Way Valve P/N</b>" <<1-Way valve>> as vOut1
component "<b>Pressure sensor P/N</b>" <<pressure sensor>> as psOut1
component "<b>Shutoff valve P/N</b>" <<shutoff valve>> as sOut1


    vsbpOut - - vsbOut
    vsbpIn - - vsbIn
    vsbOut <. bc
    bc <. vsbIn

    vsbIn ...> vIn1
    vIn1 ..> fcIn1
    fcIn1 ..> sIn1

    vsbOut <... vOut1
    vOut1 <.. psOut1
    psOut1 <.. sOut1
  }

  armIn ..> vsbpIn
  armOut <.. vsbpOut

  component "<b>Inspiratory Arm to patient P/N</b>" <<Inspiratory Arm>> as arm2patIn
  component "<b>Expiratory Arm to patient P/N</b>" <<Expiratory Arm>> as arm2patOut

  sIn1 ..> arm2patIn
  arm2patIn ..> patient

  sOut1 <.. arm2patOut
  arm2patOut <.. patient
}
@enduml

PlantUML version 1.2020.06(Sun Apr 05 12:38:32 GMT 2020)
(APACHE source distribution)
Java Runtime: Java(TM) SE Runtime Environment
JVM: Java HotSpot(TM) 64-Bit Server VM
Java Version: 1.8.0_202-b08
Operating System: Linux
Default Encoding: UTF-8
Language: en
Country: null
--></g></svg>