<?xml version="1.0" encoding="UTF-8" standalone="no"?><svg xmlns="http://www.w3.org/2000/svg" xmlns:xlink="http://www.w3.org/1999/xlink" contentScriptType="application/ecmascript" contentStyleType="text/css" height="399px" preserveAspectRatio="none" style="width:2054px;height:399px;" version="1.1" viewBox="0 0 2054 399" width="2054px" zoomAndPan="magnify"><defs><filter height="300%" id="fxapxz2xec73c" width="300%" x="-1" y="-1"><feGaussianBlur result="blurOut" stdDeviation="2.0"/><feColorMatrix in="blurOut" result="blurOut2" type="matrix" values="0 0 0 0 0 0 0 0 0 0 0 0 0 0 0 0 0 0 .4 0"/><feOffset dx="4.0" dy="4.0" in="blurOut2" result="blurOut3"/><feBlend in="SourceGraphic" in2="blurOut3" mode="normal"/></filter></defs><g><!--MD5=[e2f546e2d0ddfdac8e8429f573399cff]
cluster ibd [System] Ventilator Splitter Assembly [Air flow] --><rect fill="#FFFFFF" filter="url(#fxapxz2xec73c)" height="364" style="stroke: #000000; stroke-width: 1.5;" width="2021" x="22" y="24"/><path d="M439,25 L439,33.2969 L429,43.2969 L22,43.2969 " fill="none" style="stroke: #000000; stroke-width: 1.5;"/><text fill="#000000" font-family="sans-serif" font-size="14" font-weight="bold" lengthAdjust="spacingAndGlyphs" textLength="402" x="25" y="37.9951">ibd [System] Ventilator Splitter Assembly [Air flow]</text><!--MD5=[f7db059fb94f3f154cd750cda42c626c]
cluster ventilator--><rect fill="#FFFFFF" filter="url(#fxapxz2xec73c)" height="218" style="stroke: #000000; stroke-width: 1.5;" width="170" x="46" y="92"/><rect fill="#FFFFFF" height="10" style="stroke: #000000; stroke-width: 1.5;" width="15" x="196" y="97"/><rect fill="#FFFFFF" height="2" style="stroke: #000000; stroke-width: 1.5;" width="4" x="194" y="99"/><rect fill="#FFFFFF" height="2" style="stroke: #000000; stroke-width: 1.5;" width="4" x="194" y="103"/><text fill="#000000" font-family="sans-serif" font-size="14" font-style="italic" lengthAdjust="spacingAndGlyphs" textLength="82" x="90" y="117.9951">«ventilator»</text><text fill="#000000" font-family="sans-serif" font-size="14" font-weight="bold" lengthAdjust="spacingAndGlyphs" textLength="76" x="93" y="134.292">LTV-1200</text><!--MD5=[fdc5e125a70ff30a57906774a93a0bb5]
cluster vsb--><rect fill="#FFFFFF" filter="url(#fxapxz2xec73c)" height="297" style="stroke: #000000; stroke-width: 1.5;" width="1126" x="477" y="67"/><rect fill="#FFFFFF" height="10" style="stroke: #000000; stroke-width: 1.5;" width="15" x="1583" y="72"/><rect fill="#FFFFFF" height="2" style="stroke: #000000; stroke-width: 1.5;" width="4" x="1581" y="74"/><rect fill="#FFFFFF" height="2" style="stroke: #000000; stroke-width: 1.5;" width="4" x="1581" y="78"/><text fill="#000000" font-family="sans-serif" font-size="14" font-style="italic" lengthAdjust="spacingAndGlyphs" textLength="55" x="1012.5" y="92.9951">«block»</text><text fill="#000000" font-family="sans-serif" font-size="14" font-weight="bold" lengthAdjust="spacingAndGlyphs" textLength="220" x="930" y="109.292">Ventilator Splitter Assembly</text><!--MD5=[320cb30c242bc5a52e1169868a9af79a]
entity patient--><ellipse cx="1994" cy="220.7969" fill="#FEFECE" filter="url(#fxapxz2xec73c)" rx="8" ry="8" style="stroke: #A80036; stroke-width: 1.5;"/><path d="M1994,228.7969 L1994,255.7969 M1981,236.7969 L2007,236.7969 M1994,255.7969 L1981,270.7969 M1994,255.7969 L2007,270.7969 " fill="none" filter="url(#fxapxz2xec73c)" style="stroke: #A80036; stroke-width: 1.5;"/><text fill="#000000" font-family="sans-serif" font-size="14" font-weight="bold" lengthAdjust="spacingAndGlyphs" textLength="55" x="1966.5" y="289.292">patient</text><text fill="#000000" font-family="sans-serif" font-size="14" font-style="italic" lengthAdjust="spacingAndGlyphs" textLength="66" x="1961" y="207.9951">«human»</text><!--MD5=[aa9e818d8b3d85ba9128efa079c533d2]
entity armIn--><rect fill="#FEFECE" filter="url(#fxapxz2xec73c)" height="52.5938" style="stroke: #A80036; stroke-width: 1.5;" width="173" x="260" y="143.5"/><rect fill="#FEFECE" height="5" style="stroke: #A80036; stroke-width: 1.5;" width="10" x="255" y="148.5"/><rect fill="#FEFECE" height="5" style="stroke: #A80036; stroke-width: 1.5;" width="10" x="255" y="186.0938"/><text fill="#000000" font-family="sans-serif" font-size="14" font-style="italic" lengthAdjust="spacingAndGlyphs" textLength="122" x="285.5" y="166.4951">«Inspiratory Arm»</text><text fill="#000000" font-family="sans-serif" font-size="14" font-weight="bold" lengthAdjust="spacingAndGlyphs" textLength="153" x="270" y="182.792">Inspiratory Arm P/N</text><!--MD5=[b1df6f14fff975f4c9690eefa5c4bfe4]
entity armOut--><rect fill="#FEFECE" filter="url(#fxapxz2xec73c)" height="52.5938" style="stroke: #A80036; stroke-width: 1.5;" width="168" x="262.5" y="277.5"/><rect fill="#FEFECE" height="5" style="stroke: #A80036; stroke-width: 1.5;" width="10" x="257.5" y="282.5"/><rect fill="#FEFECE" height="5" style="stroke: #A80036; stroke-width: 1.5;" width="10" x="257.5" y="320.0938"/><text fill="#000000" font-family="sans-serif" font-size="14" font-style="italic" lengthAdjust="spacingAndGlyphs" textLength="119" x="287" y="300.4951">«Expiratory Arm»</text><text fill="#000000" font-family="sans-serif" font-size="14" font-weight="bold" lengthAdjust="spacingAndGlyphs" textLength="148" x="272.5" y="316.792">Expiratory Arm P/N</text><!--MD5=[727104f7659a26c267f84f5527a74fa2]
entity arm2patIn--><rect fill="#FEFECE" filter="url(#fxapxz2xec73c)" height="52.5938" style="stroke: #A80036; stroke-width: 1.5;" width="254" x="1647" y="165.5"/><rect fill="#FEFECE" height="5" style="stroke: #A80036; stroke-width: 1.5;" width="10" x="1642" y="170.5"/><rect fill="#FEFECE" height="5" style="stroke: #A80036; stroke-width: 1.5;" width="10" x="1642" y="208.0938"/><text fill="#000000" font-family="sans-serif" font-size="14" font-style="italic" lengthAdjust="spacingAndGlyphs" textLength="122" x="1713" y="188.4951">«Inspiratory Arm»</text><text fill="#000000" font-family="sans-serif" font-size="14" font-weight="bold" lengthAdjust="spacingAndGlyphs" textLength="234" x="1657" y="204.792">Inspiratory Arm to patient P/N</text><!--MD5=[87b1f60899d0c7e84ff6b99d50a6d53d]
entity arm2patOut--><rect fill="#FEFECE" filter="url(#fxapxz2xec73c)" height="52.5938" style="stroke: #A80036; stroke-width: 1.5;" width="249" x="1649.5" y="261.5"/><rect fill="#FEFECE" height="5" style="stroke: #A80036; stroke-width: 1.5;" width="10" x="1644.5" y="266.5"/><rect fill="#FEFECE" height="5" style="stroke: #A80036; stroke-width: 1.5;" width="10" x="1644.5" y="304.0938"/><text fill="#000000" font-family="sans-serif" font-size="14" font-style="italic" lengthAdjust="spacingAndGlyphs" textLength="119" x="1714.5" y="284.4951">«Expiratory Arm»</text><text fill="#000000" font-family="sans-serif" font-size="14" font-weight="bold" lengthAdjust="spacingAndGlyphs" textLength="229" x="1659.5" y="300.792">Expiratory Arm to patient P/N</text><!--MD5=[5986141c496af38c6ae6a67c72b97400]
entity pOut--><ellipse cx="131" cy="265" fill="#FEFECE" filter="url(#fxapxz2xec73c)" rx="8" ry="8" style="stroke: #A80036; stroke-width: 2.0;"/><text fill="#000000" font-family="sans-serif" font-size="14" font-weight="bold" lengthAdjust="spacingAndGlyphs" textLength="118" x="72" y="294.9951">Expiratory Port</text><!--MD5=[ff8bf2a3348c5e3e02cbef032d803913]
entity pIn--><ellipse cx="131" cy="172" fill="#FEFECE" filter="url(#fxapxz2xec73c)" rx="8" ry="8" style="stroke: #A80036; stroke-width: 2.0;"/><text fill="#000000" font-family="sans-serif" font-size="14" font-weight="bold" lengthAdjust="spacingAndGlyphs" textLength="123" x="69.5" y="201.9951">Inspiratory Port</text><!--MD5=[dde16d280d1ccdf194689a6521414395]
entity vsbIn--><rect fill="#FEFECE" filter="url(#fxapxz2xec73c)" height="52.5938" style="stroke: #A80036; stroke-width: 1.5;" width="169" x="691" y="118.5"/><rect fill="#FEFECE" height="5" style="stroke: #A80036; stroke-width: 1.5;" width="10" x="686" y="123.5"/><rect fill="#FEFECE" height="5" style="stroke: #A80036; stroke-width: 1.5;" width="10" x="686" y="161.0938"/><text fill="#000000" font-family="sans-serif" font-size="14" font-style="italic" lengthAdjust="spacingAndGlyphs" textLength="55" x="748" y="141.4951">«block»</text><text fill="#000000" font-family="sans-serif" font-size="14" font-weight="bold" lengthAdjust="spacingAndGlyphs" textLength="149" x="701" y="157.792">Inspiratory Section</text><!--MD5=[96e51b74cc925c600e89216052e71526]
entity vsbOut--><rect fill="#FEFECE" filter="url(#fxapxz2xec73c)" height="52.5938" style="stroke: #A80036; stroke-width: 1.5;" width="164" x="693.5" y="294.5"/><rect fill="#FEFECE" height="5" style="stroke: #A80036; stroke-width: 1.5;" width="10" x="688.5" y="299.5"/><rect fill="#FEFECE" height="5" style="stroke: #A80036; stroke-width: 1.5;" width="10" x="688.5" y="337.0938"/><text fill="#000000" font-family="sans-serif" font-size="14" font-style="italic" lengthAdjust="spacingAndGlyphs" textLength="55" x="748" y="317.4951">«block»</text><text fill="#000000" font-family="sans-serif" font-size="14" font-weight="bold" lengthAdjust="spacingAndGlyphs" textLength="144" x="703.5" y="333.792">Expiratory Section</text><!--MD5=[10d8a4dbe12dd16fea163ce3d6044365]
entity vsbpIn--><ellipse cx="562" cy="150" fill="#FEFECE" filter="url(#fxapxz2xec73c)" rx="8" ry="8" style="stroke: #A80036; stroke-width: 2.0;"/><text fill="#000000" font-family="sans-serif" font-size="14" font-weight="bold" lengthAdjust="spacingAndGlyphs" textLength="123" x="500.5" y="179.9951">Inspiratory Port</text><!--MD5=[7779b6b7b417fcab36c1e258e412925b]
entity vsbpOut--><ellipse cx="562" cy="309" fill="#FEFECE" filter="url(#fxapxz2xec73c)" rx="8" ry="8" style="stroke: #A80036; stroke-width: 2.0;"/><text fill="#000000" font-family="sans-serif" font-size="14" font-weight="bold" lengthAdjust="spacingAndGlyphs" textLength="118" x="503" y="338.9951">Expiratory Port</text><!--MD5=[ecb2462e2bd49757390f7a9519642674]
entity bc--><rect fill="#FEFECE" filter="url(#fxapxz2xec73c)" height="52.5938" style="stroke: #A80036; stroke-width: 1.5;" width="139" x="706" y="206.5"/><rect fill="#FEFECE" height="5" style="stroke: #A80036; stroke-width: 1.5;" width="10" x="701" y="211.5"/><rect fill="#FEFECE" height="5" style="stroke: #A80036; stroke-width: 1.5;" width="10" x="701" y="249.0938"/><text fill="#000000" font-family="sans-serif" font-size="14" font-style="italic" lengthAdjust="spacingAndGlyphs" textLength="90" x="730.5" y="229.4951">«bias circuit»</text><text fill="#000000" font-family="sans-serif" font-size="14" font-weight="bold" lengthAdjust="spacingAndGlyphs" textLength="119" x="716" y="245.792">Bias Circuit P/N</text><!--MD5=[014484fcae578ef1ebb9fb047866c562]
entity vIn1--><rect fill="#FEFECE" filter="url(#fxapxz2xec73c)" height="52.5938" style="stroke: #A80036; stroke-width: 1.5;" width="148" x="981" y="157.5"/><rect fill="#FEFECE" height="5" style="stroke: #A80036; stroke-width: 1.5;" width="10" x="976" y="162.5"/><rect fill="#FEFECE" height="5" style="stroke: #A80036; stroke-width: 1.5;" width="10" x="976" y="200.0938"/><text fill="#000000" font-family="sans-serif" font-size="14" font-style="italic" lengthAdjust="spacingAndGlyphs" textLength="102" x="1004" y="180.4951">«1-Way valve»</text><text fill="#000000" font-family="sans-serif" font-size="14" font-weight="bold" lengthAdjust="spacingAndGlyphs" textLength="128" x="991" y="196.792">1-Way Valve P/N</text><!--MD5=[03606ac6bddc0219af66c4819806073d]
entity fcIn1--><rect fill="#FEFECE" filter="url(#fxapxz2xec73c)" height="52.5938" style="stroke: #A80036; stroke-width: 1.5;" width="151" x="1205" y="160.5"/><rect fill="#FEFECE" height="5" style="stroke: #A80036; stroke-width: 1.5;" width="10" x="1200" y="165.5"/><rect fill="#FEFECE" height="5" style="stroke: #A80036; stroke-width: 1.5;" width="10" x="1200" y="203.0938"/><text fill="#000000" font-family="sans-serif" font-size="14" font-style="italic" lengthAdjust="spacingAndGlyphs" textLength="97" x="1232" y="183.4951">«flow control»</text><text fill="#000000" font-family="sans-serif" font-size="14" font-weight="bold" lengthAdjust="spacingAndGlyphs" textLength="131" x="1215" y="199.792">Flow Control P/N</text><!--MD5=[2ac64364a7681e86ea5dfad500fdd49e]
entity sIn1--><rect fill="#FEFECE" filter="url(#fxapxz2xec73c)" height="52.5938" style="stroke: #A80036; stroke-width: 1.5;" width="155" x="1432" y="165.5"/><rect fill="#FEFECE" height="5" style="stroke: #A80036; stroke-width: 1.5;" width="10" x="1427" y="170.5"/><rect fill="#FEFECE" height="5" style="stroke: #A80036; stroke-width: 1.5;" width="10" x="1427" y="208.0938"/><text fill="#000000" font-family="sans-serif" font-size="14" font-style="italic" lengthAdjust="spacingAndGlyphs" textLength="105" x="1457" y="188.4951">«shutoff valve»</text><text fill="#000000" font-family="sans-serif" font-size="14" font-weight="bold" lengthAdjust="spacingAndGlyphs" textLength="135" x="1442" y="204.792">Shutoff valve P/N</text><!--MD5=[3bff9e41180bb71d0a38d58cc35c0ef8]
entity vOut1--><rect fill="#FEFECE" filter="url(#fxapxz2xec73c)" height="52.5938" style="stroke: #A80036; stroke-width: 1.5;" width="148" x="981" y="289.5"/><rect fill="#FEFECE" height="5" style="stroke: #A80036; stroke-width: 1.5;" width="10" x="976" y="294.5"/><rect fill="#FEFECE" height="5" style="stroke: #A80036; stroke-width: 1.5;" width="10" x="976" y="332.0938"/><text fill="#000000" font-family="sans-serif" font-size="14" font-style="italic" lengthAdjust="spacingAndGlyphs" textLength="102" x="1004" y="312.4951">«1-Way valve»</text><text fill="#000000" font-family="sans-serif" font-size="14" font-weight="bold" lengthAdjust="spacingAndGlyphs" textLength="128" x="991" y="328.792">1-Way Valve P/N</text><!--MD5=[3d8028e98d155234a69da598e0527a03]
entity psOut1--><rect fill="#FEFECE" filter="url(#fxapxz2xec73c)" height="52.5938" style="stroke: #A80036; stroke-width: 1.5;" width="183" x="1189" y="283.5"/><rect fill="#FEFECE" height="5" style="stroke: #A80036; stroke-width: 1.5;" width="10" x="1184" y="288.5"/><rect fill="#FEFECE" height="5" style="stroke: #A80036; stroke-width: 1.5;" width="10" x="1184" y="326.0938"/><text fill="#000000" font-family="sans-serif" font-size="14" font-style="italic" lengthAdjust="spacingAndGlyphs" textLength="128" x="1216.5" y="306.4951">«pressure sensor»</text><text fill="#000000" font-family="sans-serif" font-size="14" font-weight="bold" lengthAdjust="spacingAndGlyphs" textLength="163" x="1199" y="322.792">Pressure sensor P/N</text><!--MD5=[a1a1a7e96e2c267ef382cfdd34148837]
entity sOut1--><rect fill="#FEFECE" filter="url(#fxapxz2xec73c)" height="52.5938" style="stroke: #A80036; stroke-width: 1.5;" width="155" x="1432" y="272.5"/><rect fill="#FEFECE" height="5" style="stroke: #A80036; stroke-width: 1.5;" width="10" x="1427" y="277.5"/><rect fill="#FEFECE" height="5" style="stroke: #A80036; stroke-width: 1.5;" width="10" x="1427" y="315.0938"/><text fill="#000000" font-family="sans-serif" font-size="14" font-style="italic" lengthAdjust="spacingAndGlyphs" textLength="105" x="1457" y="295.4951">«shutoff valve»</text><text fill="#000000" font-family="sans-serif" font-size="14" font-weight="bold" lengthAdjust="spacingAndGlyphs" textLength="135" x="1442" y="311.792">Shutoff valve P/N</text><!--MD5=[954a2588d49bd3266af3fc35f0c9d8e9]
reverse link pOut to armOut--><path d="M145.15,267.4 C168.32,271.63 218.15,280.74 262.31,288.8 " fill="none" id="pOut&lt;-armOut" style="stroke: #A80036; stroke-width: 1.0; stroke-dasharray: 7.0,7.0;"/><polygon fill="#A80036" points="140.11,266.48,148.2422,272.0359,145.0282,267.3807,149.6833,264.1667,140.11,266.48" style="stroke: #A80036; stroke-width: 1.0;"/><!--MD5=[b92cb9b9e71ff36c2f177908f4e1992a]
link pIn to armIn--><path d="M140.11,171.92 C159.21,171.75 208.9,171.28 254.61,170.85 " fill="none" id="pIn-&gt;armIn" style="stroke: #A80036; stroke-width: 1.0; stroke-dasharray: 7.0,7.0;"/><polygon fill="#A80036" points="259.87,170.8,250.836,166.8773,254.8702,170.8429,250.9046,174.877,259.87,170.8" style="stroke: #A80036; stroke-width: 1.0;"/><!--MD5=[0efc682130ae6a0f49fbd49741e1840d]
link vsbpOut to vsbOut--><path d="M571.03,309.46 C591.22,310.6 645.85,313.7 693.43,316.4 " fill="none" id="vsbpOut-vsbOut" style="stroke: #A80036; stroke-width: 1.0;"/><!--MD5=[010dcd3c7b926a790dd834671ef640fe]
link vsbpIn to vsbIn--><path d="M571.03,149.81 C590.84,149.34 643.82,148.09 690.75,146.98 " fill="none" id="vsbpIn-vsbIn" style="stroke: #A80036; stroke-width: 1.0;"/><!--MD5=[07f47631917b2b4333c345ddcc905c81]
reverse link vsbOut to bc--><path d="M775.5,289.36 C775.5,280.24 775.5,262.33 775.5,262.33 C775.5,262.33 775.5,261.3 775.5,259.63 " fill="none" id="vsbOut&lt;-bc" style="stroke: #A80036; stroke-width: 1.0; stroke-dasharray: 7.0,7.0;"/><polygon fill="#A80036" points="775.5,294.37,779.5,285.37,775.5,289.37,771.5,285.37,775.5,294.37" style="stroke: #A80036; stroke-width: 1.0;"/><!--MD5=[95450d3a5636606eac36468eeb7bb38b]
reverse link bc to vsbIn--><path d="M775.5,201.36 C775.5,192.24 775.5,174.33 775.5,174.33 C775.5,174.33 775.5,173.3 775.5,171.63 " fill="none" id="bc&lt;-vsbIn" style="stroke: #A80036; stroke-width: 1.0; stroke-dasharray: 7.0,7.0;"/><polygon fill="#A80036" points="775.5,206.37,779.5,197.37,775.5,201.37,771.5,197.37,775.5,206.37" style="stroke: #A80036; stroke-width: 1.0;"/><!--MD5=[f363a06e34983ddc366098b51efd8a17]
link vsbIn to vIn1--><path d="M860.14,156.75 C896.79,161.91 939.58,167.92 975.62,172.98 " fill="none" id="vsbIn-&gt;vIn1" style="stroke: #A80036; stroke-width: 1.0; stroke-dasharray: 7.0,7.0;"/><polygon fill="#A80036" points="980.88,173.72,972.515,168.5212,975.9274,173.0329,971.4157,176.4453,980.88,173.72" style="stroke: #A80036; stroke-width: 1.0;"/><!--MD5=[9cf7bba56298c39a3947768d997f71ae]
link vIn1 to fcIn1--><path d="M1129.18,184.98 C1151.67,185.28 1176.53,185.62 1199.46,185.93 " fill="none" id="vIn1-&gt;fcIn1" style="stroke: #A80036; stroke-width: 1.0; stroke-dasharray: 7.0,7.0;"/><polygon fill="#A80036" points="1204.62,185.99,1195.6781,181.8618,1199.6205,185.9186,1195.5638,189.861,1204.62,185.99" style="stroke: #A80036; stroke-width: 1.0;"/><!--MD5=[e536b37977eb2d9e8936ac89d11011d8]
link fcIn1 to sIn1--><path d="M1356.14,188.64 C1378.73,189.14 1403.65,189.69 1426.68,190.2 " fill="none" id="fcIn1-&gt;sIn1" style="stroke: #A80036; stroke-width: 1.0; stroke-dasharray: 7.0,7.0;"/><polygon fill="#A80036" points="1431.87,190.31,1422.9638,186.1054,1426.8713,190.1957,1422.7809,194.1033,1431.87,190.31" style="stroke: #A80036; stroke-width: 1.0;"/><!--MD5=[a117ddecb9c66688c03f6d11cd2ca483]
reverse link vsbOut to vOut1--><path d="M862.58,319.45 C900.52,318.77 944.63,317.97 980.94,317.32 " fill="none" id="vsbOut&lt;-vOut1" style="stroke: #A80036; stroke-width: 1.0; stroke-dasharray: 7.0,7.0;"/><polygon fill="#A80036" points="857.51,319.54,866.5772,323.3851,862.5093,319.4543,866.4401,315.3863,857.51,319.54" style="stroke: #A80036; stroke-width: 1.0;"/><!--MD5=[a170a6fc73021a1b315dc5e09a1d526e]
reverse link vOut1 to psOut1--><path d="M1134.6,313.89 C1152.17,313.42 1170.95,312.91 1188.97,312.43 " fill="none" id="vOut1&lt;-psOut1" style="stroke: #A80036; stroke-width: 1.0; stroke-dasharray: 7.0,7.0;"/><polygon fill="#A80036" points="1129.18,314.04,1138.2906,317.7813,1134.178,313.8972,1138.0621,309.7846,1129.18,314.04" style="stroke: #A80036; stroke-width: 1.0;"/><!--MD5=[6f4ec8b3c27ae957948be2dc749780b9]
reverse link psOut1 to sOut1--><path d="M1377.31,305.36 C1395.5,304.48 1414.32,303.56 1431.83,302.72 " fill="none" id="psOut1&lt;-sOut1" style="stroke: #A80036; stroke-width: 1.0; stroke-dasharray: 7.0,7.0;"/><polygon fill="#A80036" points="1372.2,305.61,1381.384,309.1674,1377.1941,305.3667,1380.9947,301.1769,1372.2,305.61" style="stroke: #A80036; stroke-width: 1.0;"/><!--MD5=[b82a1b204ae3372ceaa9662bb19d0ec2]
link armIn to vsbpIn--><path d="M433.11,161.98 C476.53,157.91 524.81,153.39 547.64,151.25 " fill="none" id="armIn-&gt;vsbpIn" style="stroke: #A80036; stroke-width: 1.0; stroke-dasharray: 7.0,7.0;"/><polygon fill="#A80036" points="552.88,150.76,543.5434,147.625,547.9022,151.2307,544.2965,155.5895,552.88,150.76" style="stroke: #A80036; stroke-width: 1.0;"/><!--MD5=[b22b4b948aad3c400e51fab38449d116]
reverse link armOut to vsbpOut--><path d="M435.72,306.07 C482.21,307.15 533.54,308.36 552.96,308.81 " fill="none" id="armOut&lt;-vsbpOut" style="stroke: #A80036; stroke-width: 1.0; stroke-dasharray: 7.0,7.0;"/><polygon fill="#A80036" points="430.66,305.95,439.5539,310.1807,435.6583,306.0789,439.7601,302.1833,430.66,305.95" style="stroke: #A80036; stroke-width: 1.0;"/><!--MD5=[6382e8b731f1c97230ccd3c6f6c96cca]
link sIn1 to arm2patIn--><path d="M1587.13,192 C1604.28,192 1622.95,192 1641.62,192 " fill="none" id="sIn1-&gt;arm2patIn" style="stroke: #A80036; stroke-width: 1.0; stroke-dasharray: 7.0,7.0;"/><polygon fill="#A80036" points="1646.89,192,1637.89,188,1641.89,192,1637.89,196,1646.89,192" style="stroke: #A80036; stroke-width: 1.0;"/><!--MD5=[a1e66b68f84625509881120cce09d44c]
link arm2patIn to patient--><path d="M1886.24,218.53 C1911.18,224.48 1935.97,230.4 1955.38,235.03 " fill="none" id="arm2patIn-&gt;patient" style="stroke: #A80036; stroke-width: 1.0; stroke-dasharray: 7.0,7.0;"/><polygon fill="#A80036" points="1960.7,236.3,1952.8847,230.3066,1955.8386,235.131,1951.0142,238.0849,1960.7,236.3" style="stroke: #A80036; stroke-width: 1.0;"/><!--MD5=[ef9b6071c14af2e50670e728b6719140]
reverse link sOut1 to arm2patOut--><path d="M1592.21,295.58 C1610.34,294.82 1629.96,293.99 1649.35,293.18 " fill="none" id="sOut1&lt;-arm2patOut" style="stroke: #A80036; stroke-width: 1.0; stroke-dasharray: 7.0,7.0;"/><polygon fill="#A80036" points="1587.13,295.79,1596.293,299.401,1592.1254,295.5759,1595.9505,291.4083,1587.13,295.79" style="stroke: #A80036; stroke-width: 1.0;"/><!--MD5=[75294b9f8ded7b06d557f23194b2a4e8]
reverse link arm2patOut to patient--><path d="M1903.77,262.01 C1924.98,257.73 1945.15,253.66 1960.94,250.47 " fill="none" id="arm2patOut&lt;-patient" style="stroke: #A80036; stroke-width: 1.0; stroke-dasharray: 7.0,7.0;"/><polygon fill="#A80036" points="1898.65,263.04,1908.2681,265.1596,1903.549,262.0402,1906.6684,257.3211,1898.65,263.04" style="stroke: #A80036; stroke-width: 1.0;"/><!--MD5=[1154cc560596ba70bf15758f55deffc3]
@startuml
left to right direction
skinparam linetype polyline

frame "ibd [System] Ventilator Splitter Assembly [Air flow] " {

  actor "<b>patient</b>" <<human>> as patient

  component "<b>LTV-1200</b>" <<ventilator>> as ventilator {
    interface "<b>Expiratory Port</b>" as pOut
    interface "<b>Inspiratory Port</b>" as pIn
  }

  component "<b>Inspiratory Arm P/N</b>" <<Inspiratory Arm>> as armIn
  component "<b>Expiratory Arm P/N</b>" <<Expiratory Arm>> as armOut

  pOut <.. armOut
  pIn ..> armIn

  component "<b>Ventilator Splitter Assembly</b>" <<block>> as vsb {

component "<b>Inspiratory Section</b>" <<block>> as vsbIn
component "<b>Expiratory Section</b>" <<block>> as vsbOut
interface "<b>Inspiratory Port</b>" as vsbpIn
interface "<b>Expiratory Port</b>" as vsbpOut

component "<b>Bias Circuit P/N</b>" <<bias circuit>> as bc

component "<b>1-Way Valve P/N</b>" <<1-Way valve>> as vIn1
component "<b>Flow Control P/N</b>" <<flow control>> as fcIn1
component "<b>Shutoff valve P/N</b>" <<shutoff valve>> as sIn1

component "<b>1-Way Valve P/N</b>" <<1-Way valve>> as vOut1
component "<b>Pressure sensor P/N</b>" <<pressure sensor>> as psOut1
component "<b>Shutoff valve P/N</b>" <<shutoff valve>> as sOut1


    vsbpOut - - vsbOut
    vsbpIn - - vsbIn
    vsbOut <. bc
    bc <. vsbIn

    vsbIn ...> vIn1
    vIn1 ..> fcIn1
    fcIn1 ..> sIn1

    vsbOut <... vOut1
    vOut1 <.. psOut1
    psOut1 <.. sOut1
  }

  armIn ..> vsbpIn
  armOut <.. vsbpOut

  component "<b>Inspiratory Arm to patient P/N</b>" <<Inspiratory Arm>> as arm2patIn
  component "<b>Expiratory Arm to patient P/N</b>" <<Expiratory Arm>> as arm2patOut

  sIn1 ..> arm2patIn
  arm2patIn ..> patient

  sOut1 <.. arm2patOut
  arm2patOut <.. patient
}
@enduml

PlantUML version 1.2020.06(Sun Apr 05 07:38:32 CDT 2020)
(APACHE source distribution)
Java Runtime: OpenJDK Runtime Environment
JVM: OpenJDK 64-Bit Server VM
Java Version: 11.0.7+10-post-Ubuntu-3ubuntu1
Operating System: Linux
Default Encoding: ANSI_X3.4-1968
Language: en
Country: US
--></g></svg>