<?xml version="1.0" encoding="UTF-8" standalone="no"?><svg xmlns="http://www.w3.org/2000/svg" xmlns:xlink="http://www.w3.org/1999/xlink" contentScriptType="application/ecmascript" contentStyleType="text/css" height="704px" preserveAspectRatio="none" style="width:3866px;height:704px;" version="1.1" viewBox="0 0 3866 704" width="3866px" zoomAndPan="magnify"><defs><filter height="300%" id="f70xbqka1xfac" width="300%" x="-1" y="-1"><feGaussianBlur result="blurOut" stdDeviation="2.0"/><feColorMatrix in="blurOut" result="blurOut2" type="matrix" values="0 0 0 0 0 0 0 0 0 0 0 0 0 0 0 0 0 0 .4 0"/><feOffset dx="4.0" dy="4.0" in="blurOut2" result="blurOut3"/><feBlend in="SourceGraphic" in2="blurOut3" mode="normal"/></filter></defs><g><!--MD5=[231e41c115a9d5657f14026a7acfbcd1]
cluster ibd [System] Electronic Sensing System [Power and Data Flow]--><rect fill="#FFFFFF" filter="url(#f70xbqka1xfac)" height="677" style="stroke: #000000; stroke-width: 1.5;" width="3841" x="14" y="16"/><path d="M474,17 L474,25.29 L464,35.29 L14,35.29 " fill="none" style="stroke: #000000; stroke-width: 1.5;"/><text fill="#000000" font-family="sans-serif" font-size="14" font-weight="bold" lengthAdjust="spacingAndGlyphs" textLength="450" x="17" y="30.3369">ibd [System] Electronic Sensing System [Power and Data Flow]</text><!--MD5=[69baca66d633bee4663b6b022bf4ea4f]
cluster Power System--><rect fill="#FFFFFF" filter="url(#f70xbqka1xfac)" height="89" style="stroke: #000000; stroke-width: 1.5;" width="696" x="2131" y="43"/><text fill="#000000" font-family="sans-serif" font-size="14" font-weight="bold" lengthAdjust="spacingAndGlyphs" textLength="101" x="2428.5" y="58.3369">Power System</text><!--MD5=[a62a56b87ab40b314025e74aa2de1504]
cluster PresSens--><rect fill="#FFFFFF" filter="url(#f70xbqka1xfac)" height="152" style="stroke: #000000; stroke-width: 1.5;" width="1295.5" x="325.5" y="148"/><text fill="#000000" font-family="sans-serif" font-size="14" font-weight="bold" lengthAdjust="spacingAndGlyphs" textLength="180" x="883.25" y="163.3369">Pressure Sensing System</text><!--MD5=[62a9b3e1f06d7093c23d82dfa31bf6bd]
cluster Open--><rect fill="#FFFFFF" filter="url(#f70xbqka1xfac)" height="152" style="stroke: #000000; stroke-width: 1.5;" width="2570" x="280" y="525"/><text fill="#000000" font-family="sans-serif" font-size="14" font-weight="bold" lengthAdjust="spacingAndGlyphs" textLength="251" x="1439.5" y="540.3369">Open-Source Flow Sensing System</text><!--MD5=[8ca44ef63c47614dc7e20c7803ace7f6]
cluster FDA--><rect fill="#FFFFFF" filter="url(#f70xbqka1xfac)" height="152" style="stroke: #000000; stroke-width: 1.5;" width="2548.5" x="287.5" y="308"/><text fill="#000000" font-family="sans-serif" font-size="14" font-weight="bold" lengthAdjust="spacingAndGlyphs" textLength="263" x="1430.25" y="323.3369">FDA-Approved Flow Sensing System</text><!--MD5=[7ac5496373f27f81cf75c14fdf13b2e5]
cluster Clinical Feedback--><rect fill="#FFFFFF" filter="url(#f70xbqka1xfac)" height="409" style="stroke: #000000; stroke-width: 1.5;" width="192" x="3397" y="98"/><text fill="#000000" font-family="sans-serif" font-size="14" font-weight="bold" lengthAdjust="spacingAndGlyphs" textLength="125" x="3430.5" y="113.3369">Clinical Feedback</text><!--MD5=[9c57b27997a76b2ab9c61836d6d898c8]
entity Pi--><rect fill="#FEFECE" filter="url(#f70xbqka1xfac)" height="52.5801" style="stroke: #A80036; stroke-width: 1.5;" width="139" x="3063" y="285.5"/><rect fill="#FEFECE" height="5" style="stroke: #A80036; stroke-width: 1.5;" width="10" x="3058" y="290.5"/><rect fill="#FEFECE" height="5" style="stroke: #A80036; stroke-width: 1.5;" width="10" x="3058" y="328.0801"/><text fill="#000000" font-family="sans-serif" font-size="14" font-style="italic" lengthAdjust="spacingAndGlyphs" textLength="119" x="3073" y="308.8027">«Microcontroller»</text><text fill="#000000" font-family="sans-serif" font-size="14" lengthAdjust="spacingAndGlyphs" textLength="108" x="3078.5" y="325.0928">Raspberry Pi B+</text><!--MD5=[3ebe3fc39788d9586b6a788237dafbe0]
entity WO--><ellipse cx="1891" cy="97" fill="#FEFECE" filter="url(#f70xbqka1xfac)" rx="8" ry="8" style="stroke: #A80036; stroke-width: 2.0;"/><text fill="#000000" font-family="sans-serif" font-size="14" lengthAdjust="spacingAndGlyphs" textLength="74" x="1854" y="127.3027">Wall Outlet</text><!--MD5=[f138531b5c7ec98bcba2d29a7db668a7]
entity Doc--><ellipse cx="3815.5" cy="288.79" fill="#FEFECE" filter="url(#f70xbqka1xfac)" rx="8" ry="8" style="stroke: #A80036; stroke-width: 1.5;"/><path d="M3815.5,296.79 L3815.5,323.79 M3802.5,304.79 L3828.5,304.79 M3815.5,323.79 L3802.5,338.79 M3815.5,323.79 L3828.5,338.79 " fill="none" filter="url(#f70xbqka1xfac)" style="stroke: #A80036; stroke-width: 1.5;"/><text fill="#000000" font-family="sans-serif" font-size="14" lengthAdjust="spacingAndGlyphs" textLength="59" x="3786" y="357.5928">Clinician</text><text fill="#000000" font-family="sans-serif" font-size="14" font-style="italic" lengthAdjust="spacingAndGlyphs" textLength="63" x="3784" y="276.3027">«Human»</text><!--MD5=[4dc362a4069dbfa4117156f162731ce6]
entity Pat--><ellipse cx="53.5" cy="369.79" fill="#FEFECE" filter="url(#f70xbqka1xfac)" rx="8" ry="8" style="stroke: #A80036; stroke-width: 1.5;"/><path d="M53.5,377.79 L53.5,404.79 M40.5,385.79 L66.5,385.79 M53.5,404.79 L40.5,419.79 M53.5,404.79 L66.5,419.79 " fill="none" filter="url(#f70xbqka1xfac)" style="stroke: #A80036; stroke-width: 1.5;"/><text fill="#000000" font-family="sans-serif" font-size="14" lengthAdjust="spacingAndGlyphs" textLength="47" x="30" y="438.5928">Patient</text><text fill="#000000" font-family="sans-serif" font-size="14" font-style="italic" lengthAdjust="spacingAndGlyphs" textLength="63" x="22" y="357.3027">«Human»</text><!--MD5=[3731d842061e492f7914f1cd8c71dbe9]
entity VR--><rect fill="#FEFECE" filter="url(#f70xbqka1xfac)" height="52.5801" style="stroke: #A80036; stroke-width: 1.5;" width="157" x="2662" y="70.5"/><rect fill="#FEFECE" height="5" style="stroke: #A80036; stroke-width: 1.5;" width="10" x="2657" y="75.5"/><rect fill="#FEFECE" height="5" style="stroke: #A80036; stroke-width: 1.5;" width="10" x="2657" y="113.0801"/><text fill="#000000" font-family="sans-serif" font-size="14" font-style="italic" lengthAdjust="spacingAndGlyphs" textLength="137" x="2672" y="93.8027">«Voltage Regulator»</text><text fill="#000000" font-family="sans-serif" font-size="14" lengthAdjust="spacingAndGlyphs" textLength="80" x="2700.5" y="110.0928">LM259SX-5</text><!--MD5=[e4aaec21de269c7bd285ce6876c0ce8e]
entity PJ--><rect fill="#FEFECE" filter="url(#f70xbqka1xfac)" height="36.29" style="stroke: #A80036; stroke-width: 1.5;" width="93" x="2139" y="79"/><rect fill="#FEFECE" height="5" style="stroke: #A80036; stroke-width: 1.5;" width="10" x="2134" y="84"/><rect fill="#FEFECE" height="5" style="stroke: #A80036; stroke-width: 1.5;" width="10" x="2134" y="105.29"/><text fill="#000000" font-family="sans-serif" font-size="14" lengthAdjust="spacingAndGlyphs" textLength="73" x="2149" y="102.3027">Power Jack</text><!--MD5=[95a3782a1e0b8f7d06e63642eb7624f3]
entity Pres--><rect fill="#FEFECE" filter="url(#f70xbqka1xfac)" height="52.5801" style="stroke: #A80036; stroke-width: 1.5;" width="151" x="333.5" y="194.5"/><rect fill="#FEFECE" height="5" style="stroke: #A80036; stroke-width: 1.5;" width="10" x="328.5" y="199.5"/><rect fill="#FEFECE" height="5" style="stroke: #A80036; stroke-width: 1.5;" width="10" x="328.5" y="237.0801"/><text fill="#000000" font-family="sans-serif" font-size="14" font-style="italic" lengthAdjust="spacingAndGlyphs" textLength="131" x="343.5" y="217.8027">«Pressure Sensors»</text><text fill="#000000" font-family="sans-serif" font-size="14" lengthAdjust="spacingAndGlyphs" textLength="116" x="351" y="234.0928">SPL06 - 007 (x5)</text><!--MD5=[d90744675e3b737dad790a8684596ff6]
entity MUX1--><rect fill="#FEFECE" filter="url(#f70xbqka1xfac)" height="52.5801" style="stroke: #A80036; stroke-width: 1.5;" width="202" x="1411" y="178.5"/><rect fill="#FEFECE" height="5" style="stroke: #A80036; stroke-width: 1.5;" width="10" x="1406" y="183.5"/><rect fill="#FEFECE" height="5" style="stroke: #A80036; stroke-width: 1.5;" width="10" x="1406" y="221.0801"/><text fill="#000000" font-family="sans-serif" font-size="14" font-style="italic" lengthAdjust="spacingAndGlyphs" textLength="182" x="1421" y="201.8027">«I2C Pressure Multiplexer»</text><text fill="#000000" font-family="sans-serif" font-size="14" lengthAdjust="spacingAndGlyphs" textLength="75" x="1474.5" y="218.0928">TCA9548A</text><!--MD5=[b2772bca14f4f0ded085b55f270cbaf2]
entity AAS--><rect fill="#FEFECE" filter="url(#f70xbqka1xfac)" height="52.5801" style="stroke: #A80036; stroke-width: 1.5;" width="242" x="288" y="553.5"/><rect fill="#FEFECE" height="5" style="stroke: #A80036; stroke-width: 1.5;" width="10" x="283" y="558.5"/><rect fill="#FEFECE" height="5" style="stroke: #A80036; stroke-width: 1.5;" width="10" x="283" y="596.0801"/><text fill="#000000" font-family="sans-serif" font-size="14" font-style="italic" lengthAdjust="spacingAndGlyphs" textLength="124" x="347" y="576.8027">«Generic Sensors»</text><text fill="#000000" font-family="sans-serif" font-size="14" lengthAdjust="spacingAndGlyphs" textLength="222" x="298" y="593.0928">Automotive Airflow Sensors (x4)</text><!--MD5=[42811681d3549880614161e8bda90a35]
entity ADC--><rect fill="#FEFECE" filter="url(#f70xbqka1xfac)" height="52.5801" style="stroke: #A80036; stroke-width: 1.5;" width="203" x="2639" y="552.5"/><rect fill="#FEFECE" height="5" style="stroke: #A80036; stroke-width: 1.5;" width="10" x="2634" y="557.5"/><rect fill="#FEFECE" height="5" style="stroke: #A80036; stroke-width: 1.5;" width="10" x="2634" y="595.0801"/><text fill="#000000" font-family="sans-serif" font-size="14" font-style="italic" lengthAdjust="spacingAndGlyphs" textLength="183" x="2649" y="575.8027">«Analog Digital Converter»</text><text fill="#000000" font-family="sans-serif" font-size="14" lengthAdjust="spacingAndGlyphs" textLength="75" x="2703" y="592.0928">TCA9548A</text><!--MD5=[c9ddee325b7b7bec99cd3de9fa4af928]
entity ACon--><ellipse cx="1512" cy="581" fill="#FEFECE" filter="url(#f70xbqka1xfac)" rx="8" ry="8" style="stroke: #A80036; stroke-width: 2.0;"/><text fill="#000000" font-family="sans-serif" font-size="14" lengthAdjust="spacingAndGlyphs" textLength="247" x="1388.5" y="611.3027">Automotive Airflow Connectors (x4)</text><!--MD5=[5c7c32375199ad5dc7dce2aeef312364]
entity Sens--><rect fill="#FEFECE" filter="url(#f70xbqka1xfac)" height="52.5801" style="stroke: #A80036; stroke-width: 1.5;" width="227" x="295.5" y="366.5"/><rect fill="#FEFECE" height="5" style="stroke: #A80036; stroke-width: 1.5;" width="10" x="290.5" y="371.5"/><rect fill="#FEFECE" height="5" style="stroke: #A80036; stroke-width: 1.5;" width="10" x="290.5" y="409.0801"/><text fill="#000000" font-family="sans-serif" font-size="14" font-style="italic" lengthAdjust="spacingAndGlyphs" textLength="136" x="341" y="389.8027">«Sensirion Sensors»</text><text fill="#000000" font-family="sans-serif" font-size="14" lengthAdjust="spacingAndGlyphs" textLength="207" x="305.5" y="406.0928">Sensirion Airflow Sensors (x4)</text><!--MD5=[e1af7d7aa319dee8443b1a74aa762d84]
entity MUX2--><rect fill="#FEFECE" filter="url(#f70xbqka1xfac)" height="52.5801" style="stroke: #A80036; stroke-width: 1.5;" width="175" x="2653" y="335.5"/><rect fill="#FEFECE" height="5" style="stroke: #A80036; stroke-width: 1.5;" width="10" x="2648" y="340.5"/><rect fill="#FEFECE" height="5" style="stroke: #A80036; stroke-width: 1.5;" width="10" x="2648" y="378.0801"/><text fill="#000000" font-family="sans-serif" font-size="14" font-style="italic" lengthAdjust="spacingAndGlyphs" textLength="155" x="2663" y="358.8027">«I2C Flow Multiplexer»</text><text fill="#000000" font-family="sans-serif" font-size="14" lengthAdjust="spacingAndGlyphs" textLength="75" x="2703" y="375.0928">TCA9548A</text><!--MD5=[719972010eb4348acdf85e57300ab58a]
entity SCon--><ellipse cx="1512" cy="378" fill="#FEFECE" filter="url(#f70xbqka1xfac)" rx="8" ry="8" style="stroke: #A80036; stroke-width: 2.0;"/><text fill="#000000" font-family="sans-serif" font-size="14" lengthAdjust="spacingAndGlyphs" textLength="232" x="1396" y="408.3027">Sensirion Airflow Connectors (x4)</text><!--MD5=[70d610b3ca277a70fbee293757a13e46]
entity Display--><ellipse cx="3493" cy="470" fill="#FEFECE" filter="url(#f70xbqka1xfac)" rx="8" ry="8" style="stroke: #A80036; stroke-width: 2.0;"/><text fill="#000000" font-family="sans-serif" font-size="14" lengthAdjust="spacingAndGlyphs" textLength="161" x="3412.5" y="500.3027">Raspberry Pi B+ Display</text><text fill="#000000" font-family="sans-serif" font-size="14" font-style="italic" lengthAdjust="spacingAndGlyphs" textLength="63" x="3461.5" y="450.0127">«Display»</text><!--MD5=[6501f345ffec8c404045b662ce434929]
entity LED--><ellipse cx="3493" cy="312" fill="#FEFECE" filter="url(#f70xbqka1xfac)" rx="8" ry="8" style="stroke: #A80036; stroke-width: 2.0;"/><text fill="#000000" font-family="sans-serif" font-size="14" lengthAdjust="spacingAndGlyphs" textLength="129" x="3428.5" y="342.3027">Indicator LEDs (x8)</text><!--MD5=[9861b719929120b3c1394e9627ae51af]
entity Aud--><ellipse cx="3493" cy="154" fill="#FEFECE" filter="url(#f70xbqka1xfac)" rx="8" ry="8" style="stroke: #A80036; stroke-width: 2.0;"/><text fill="#000000" font-family="sans-serif" font-size="14" lengthAdjust="spacingAndGlyphs" textLength="86" x="3450" y="184.3027">Audio Alarm</text><!--MD5=[65dce5911937bb9e61dbf35816f99151]
link WO to PJ--><path d="M1900.1367,97 C1935.0273,97 2061.528,97 2133.8462,97 " fill="none" id="WO-&gt;PJ" style="stroke: #A80036; stroke-width: 1.0; stroke-dasharray: 7.0,7.0;"/><polygon fill="#A80036" points="2138.9575,97,2129.9575,93,2133.9575,97,2129.9575,101,2138.9575,97" style="stroke: #A80036; stroke-width: 1.0;"/><!--MD5=[c716c3c8091a5e10deff367933687a7b]
link PJ to VR--><path d="M2232.1599,97 C2261.2946,97 2299.5833,97 2333.5,97 C2333.5,97 2333.5,97 2537.5,97 C2576.6336,97 2620.0106,97 2656.5876,97 " fill="none" id="PJ-&gt;VR" style="stroke: #A80036; stroke-width: 1.0; stroke-dasharray: 7.0,7.0;"/><polygon fill="#A80036" points="2661.9335,97,2652.9335,93,2656.9335,97,2652.9335,101,2661.9335,97" style="stroke: #A80036; stroke-width: 1.0;"/><!--MD5=[23e8353a21e5356663650aad2400a8f3]
link VR to Pi--><path d="M2819.205,113.0999 C2832.4244,116.9282 2845.801,121.5303 2858,127 C2950.8293,168.6226 3046.5336,241.1427 3096.7486,281.9264 " fill="none" id="VR-&gt;Pi" style="stroke: #A80036; stroke-width: 1.0; stroke-dasharray: 7.0,7.0;"/><polygon fill="#A80036" points="3100.8747,285.2894,3096.4253,276.5029,3096.9989,282.1306,3091.3712,282.7042,3100.8747,285.2894" style="stroke: #A80036; stroke-width: 1.0;"/><text fill="#000000" font-family="sans-serif" font-size="13" lengthAdjust="spacingAndGlyphs" textLength="17" x="2944" y="169.3525">5V</text><!--MD5=[22372af9dee4c8298be32aa218ea21b1]
link Pres to MUX1--><path d="M484.6302,206.2027 C527.5323,199.0531 582.3191,192 631.5,192 C631.5,192 631.5,192 1279.5,192 C1322.5554,192 1370.0259,194.2499 1410.7865,196.8777 " fill="none" id="Pres-MUX1" style="stroke: #A80036; stroke-width: 1.0; stroke-dasharray: 7.0,7.0;"/><text fill="#000000" font-family="sans-serif" font-size="13" lengthAdjust="spacingAndGlyphs" textLength="35" x="938" y="188.3525">«I2C»</text><!--MD5=[e08ab81de073eba21edf8b2736bacb82]
link AAS to ACon--><path d="M530.2502,580.7425 C563.1057,580.8898 598.6655,581 631.5,581 C631.5,581 631.5,581 1279.5,581 C1366.2839,581 1471.2889,581 1502.6974,581 " fill="none" id="AAS-ACon" style="stroke: #A80036; stroke-width: 1.0;"/><!--MD5=[bb2bd11a8d954ad14b80421001a43b7b]
link ACon to ADC--><path d="M1521.2938,580.1752 C1552.6741,577.4641 1657.6006,569 1744.5,569 C1744.5,569 1744.5,569 2537.5,569 C2570.4922,569 2606.4641,570.334 2638.838,572.0275 " fill="none" id="ACon-ADC" style="stroke: #A80036; stroke-width: 1.0; stroke-dasharray: 7.0,7.0;"/><text fill="#000000" font-family="sans-serif" font-size="13" lengthAdjust="spacingAndGlyphs" textLength="32" x="2169.5" y="565.3525">«SPI»</text><!--MD5=[61ab6338072ce9ff550fc55ee64a7ab8]
link Sens to SCon--><path d="M522.763,393 C557.6516,393 596.1549,393 631.5,393 C631.5,393 631.5,393 1279.5,393 C1366.4643,393 1471.3467,382.4199 1502.7112,379.031 " fill="none" id="Sens-SCon" style="stroke: #A80036; stroke-width: 1.0;"/><!--MD5=[78056703e8174c9cca573dfb11f98e03]
link SCon to MUX2--><path d="M1521.261,376.2129 C1552.5378,370.3388 1657.1752,352 1744.5,352 C1744.5,352 1744.5,352 2537.5,352 C2575.344,352 2617.1085,353.7552 2652.8663,355.7948 " fill="none" id="SCon-MUX2" style="stroke: #A80036; stroke-width: 1.0; stroke-dasharray: 7.0,7.0;"/><text fill="#000000" font-family="sans-serif" font-size="13" lengthAdjust="spacingAndGlyphs" textLength="35" x="2168" y="348.3525">«I2C»</text><!--MD5=[3c23a70da753dd75fb8d4d6761c86d97]
link Pat to Sens--><path d="M85.0483,393 C130.7667,393 217.8881,393 290.2761,393 " fill="none" id="Pat-&gt;Sens" style="stroke: #A80036; stroke-width: 1.0; stroke-dasharray: 7.0,7.0;"/><polygon fill="#A80036" points="295.4618,393,286.4618,389,290.4618,393,286.4618,397,295.4618,393" style="stroke: #A80036; stroke-width: 1.0;"/><!--MD5=[185906c24e0a518f124d186f8670d115]
link Pat to Pres--><path d="M85.14,376.5539 C127.457,354.6774 204.9377,315.0385 272,283 C295.312,271.8629 321.0731,260.0714 343.9062,249.7956 " fill="none" id="Pat-&gt;Pres" style="stroke: #A80036; stroke-width: 1.0; stroke-dasharray: 7.0,7.0;"/><polygon fill="#A80036" points="348.7322,247.6267,338.8834,247.6677,344.1716,249.6764,342.163,254.9646,348.7322,247.6267" style="stroke: #A80036; stroke-width: 1.0;"/><!--MD5=[44f6d33cb73da69227f8185c8079f1fd]
link Pat to AAS--><path d="M85.0483,409.595 C145.5281,441.4086 278.4629,511.3349 353.8956,551.014 " fill="none" id="Pat-&gt;AAS" style="stroke: #A80036; stroke-width: 1.0; stroke-dasharray: 7.0,7.0;"/><polygon fill="#A80036" points="358.334,553.3487,352.2309,545.6187,353.9089,551.021,348.5066,552.6989,358.334,553.3487" style="stroke: #A80036; stroke-width: 1.0;"/><!--MD5=[cb73ff80b30a12b195a6ecf83b7978e3]
link MUX2 to Pi--><path d="M2828.4725,350.779 C2897.4425,341.9818 2992.366,329.8742 3057.7055,321.5401 " fill="none" id="MUX2-&gt;Pi" style="stroke: #A80036; stroke-width: 1.0; stroke-dasharray: 7.0,7.0;"/><polygon fill="#A80036" points="3062.751,320.8966,3053.3172,318.0676,3057.7912,321.5293,3054.3295,326.0033,3062.751,320.8966" style="stroke: #A80036; stroke-width: 1.0;"/><!--MD5=[5bdbcbba173b9ec474037f78d5d91eef]
link ADC to Pi--><path d="M2779.5196,552.4229 C2853.0956,502.3086 3011.8434,394.1819 3088.8447,341.7346 " fill="none" id="ADC-&gt;Pi" style="stroke: #A80036; stroke-width: 1.0; stroke-dasharray: 7.0,7.0;"/><polygon fill="#A80036" points="3093.3478,338.6675,3083.6576,340.4281,3089.2153,341.4822,3088.1612,347.04,3093.3478,338.6675" style="stroke: #A80036; stroke-width: 1.0;"/><!--MD5=[2771e83feda2140352d7d427dcaade38]
link MUX1 to Pi--><path d="M1613.2283,223.1602 C1653.8865,229.0045 1701.2803,234 1744.5,234 C1744.5,234 1744.5,234 2588.5,234 C2757.79,234 2953.741,271.4702 3058.0708,294.4695 " fill="none" id="MUX1-&gt;Pi" style="stroke: #A80036; stroke-width: 1.0; stroke-dasharray: 7.0,7.0;"/><polygon fill="#A80036" points="3062.9691,295.5535,3055.0461,289.7032,3058.0872,294.4731,3053.3174,297.5142,3062.9691,295.5535" style="stroke: #A80036; stroke-width: 1.0;"/><!--MD5=[6004182150c6439132ca022b8248de39]
link Pi to LED--><path d="M3202.008,312 C3289.3035,312 3433.178,312 3478.7165,312 " fill="none" id="Pi-&gt;LED" style="stroke: #A80036; stroke-width: 1.0; stroke-dasharray: 7.0,7.0;"/><polygon fill="#A80036" points="3483.7721,312,3474.7721,308,3478.7721,312,3474.7721,316,3483.7721,312" style="stroke: #A80036; stroke-width: 1.0;"/><!--MD5=[b502c9f6e3f7524c28b66397a476938f]
link Pi to Aud--><path d="M3193.2463,285.3761 C3279.5959,247.5308 3432.5397,180.4985 3479.1406,160.0743 " fill="none" id="Pi-&gt;Aud" style="stroke: #A80036; stroke-width: 1.0; stroke-dasharray: 7.0,7.0;"/><polygon fill="#A80036" points="3483.8027,158.031,3473.954,157.9802,3479.2232,160.0381,3477.1653,165.3074,3483.8027,158.031" style="stroke: #A80036; stroke-width: 1.0;"/><!--MD5=[f070feb7113c8a0843c594b82e9f6fc8]
link Pi to Display--><path d="M3193.2463,338.6239 C3279.5959,376.4692 3432.5397,443.5015 3479.1406,463.9257 " fill="none" id="Pi-&gt;Display" style="stroke: #A80036; stroke-width: 1.0; stroke-dasharray: 7.0,7.0;"/><polygon fill="#A80036" points="3483.8027,465.969,3477.1653,458.6926,3479.2232,463.9619,3473.954,466.0198,3483.8027,465.969" style="stroke: #A80036; stroke-width: 1.0;"/><!--MD5=[84f02cc4c1757ad94a01989ca050c281]
link LED to Doc--><path d="M3502.304,312 C3542.7974,312 3704.945,312 3778.6737,312 " fill="none" id="LED-&gt;Doc" style="stroke: #A80036; stroke-width: 1.0; stroke-dasharray: 7.0,7.0;"/><polygon fill="#A80036" points="3783.8265,312,3774.8265,308,3778.8265,312,3774.8265,316,3783.8265,312" style="stroke: #A80036; stroke-width: 1.0;"/><!--MD5=[73e0db9a52f44b07d4a85d535efbea00]
link Aud to Doc--><path d="M3502.304,158.5582 C3542.8784,178.4366 3705.5941,258.1546 3779.115,294.1742 " fill="none" id="Aud-&gt;Doc" style="stroke: #A80036; stroke-width: 1.0; stroke-dasharray: 7.0,7.0;"/><polygon fill="#A80036" points="3783.8265,296.4824,3777.5043,288.9306,3779.3365,294.2825,3773.9845,296.1147,3783.8265,296.4824" style="stroke: #A80036; stroke-width: 1.0;"/><!--MD5=[408dee324a96c85004691f3f8f8e9a65]
link Display to Doc--><path d="M3502.304,465.4418 C3542.8784,445.5634 3705.5941,365.8454 3779.115,329.8258 " fill="none" id="Display-&gt;Doc" style="stroke: #A80036; stroke-width: 1.0; stroke-dasharray: 7.0,7.0;"/><polygon fill="#A80036" points="3783.8265,327.5176,3773.9845,327.8853,3779.3365,329.7175,3777.5043,335.0694,3783.8265,327.5176" style="stroke: #A80036; stroke-width: 1.0;"/><!--MD5=[476eee6842cc9c52da69b23d23d9d0d6]
@startuml
left to right direction
skinparam nodesep 100
skinparam ranksep 100
frame "ibd [System] Electronic Sensing System [Power and Data Flow]" {
  [Raspberry Pi B+] <<Microcontroller>> as [Pi]
  () "Wall Outlet" as WO

  rectangle "Power System" {
    [LM259SX-5] <<Voltage Regulator>> as [VR]
    [Power Jack] as PJ
    WO ..> PJ
    PJ ..> VR
    VR ..> Pi: 5V
  }

  together {
    rectangle "Pressure Sensing System" as PresSens{
      [SPL06 - 007 (x5)] <<Pressure Sensors>> as Pres
      [TCA9548A] <<I2C Pressure Multiplexer>> as [MUX1]
      Pres .. MUX1: <<I2C>>
    }

    rectangle "Open-Source Flow Sensing System"  as Open{
      [Automotive Airflow Sensors (x4)] <<Generic Sensors>> as AAS
      [TCA9548A] <<Analog Digital Converter>> as [ADC]
      () "Automotive Airflow Connectors (x4)" as ACon
      AAS - - ACon
      ACon .. ADC: <<SPI>>
    }

    rectangle "FDA-Approved Flow Sensing System"  as FDA{
      [Sensirion Airflow Sensors (x4)] <<Sensirion Sensors>> as Sens
      [TCA9548A] <<I2C Flow Multiplexer>> as [MUX2]
      () "Sensirion Airflow Connectors (x4)" as SCon
      Sens - - SCon
      SCon .. MUX2: <<I2C>>
    }
  }


  "Clinician" <<Human>> as Doc
  "Patient" <<Human>> as Pat

  Pat ..> Sens
  Pat ..> Pres
  Pat ..> AAS


  MUX2 ..> Pi
  ADC  ..> Pi
  MUX1 ..> Pi

  rectangle "Clinical Feedback" {
      () "Raspberry Pi B+ Display" <<Display>> as Display
      () "Indicator LEDs (x8)" as LED
      () "Audio Alarm"  as Aud
  }

  Pi ..> LED
  Pi ..> Aud
  Pi ..> Display

  LED ..> Doc
  Aud ..> Doc
  Display ..> Doc
}
@enduml

PlantUML version 1.2020.06(Sun Apr 05 12:38:32 GMT 2020)
(APACHE source distribution)
Java Runtime: Java(TM) SE Runtime Environment
JVM: Java HotSpot(TM) 64-Bit Server VM
Java Version: 1.8.0_202-b08
Operating System: Linux
Default Encoding: UTF-8
Language: en
Country: null
--></g></svg>