<?xml version="1.0" encoding="UTF-8" standalone="no"?><svg xmlns="http://www.w3.org/2000/svg" xmlns:xlink="http://www.w3.org/1999/xlink" contentScriptType="application/ecmascript" contentStyleType="text/css" height="831px" preserveAspectRatio="none" style="width:1925px;height:831px;" version="1.1" viewBox="0 0 1925 831" width="1925px" zoomAndPan="magnify"><defs><filter height="300%" id="f70xbqka1xfac" width="300%" x="-1" y="-1"><feGaussianBlur result="blurOut" stdDeviation="2.0"/><feColorMatrix in="blurOut" result="blurOut2" type="matrix" values="0 0 0 0 0 0 0 0 0 0 0 0 0 0 0 0 0 0 .4 0"/><feOffset dx="4.0" dy="4.0" in="blurOut2" result="blurOut3"/><feBlend in="SourceGraphic" in2="blurOut3" mode="normal"/></filter></defs><g><!--MD5=[231e41c115a9d5657f14026a7acfbcd1]
cluster ibd [System] Electronic Sensing System [Power and Data Flow]--><rect fill="#FFFFFF" filter="url(#f70xbqka1xfac)" height="796" style="stroke: #000000; stroke-width: 1.5;" width="1892" x="22" y="24"/><path d="M529,25 L529,33.2969 L519,43.2969 L22,43.2969 " fill="none" style="stroke: #000000; stroke-width: 1.5;"/><text fill="#000000" font-family="sans-serif" font-size="14" font-weight="bold" lengthAdjust="spacingAndGlyphs" textLength="497" x="25" y="37.9951">ibd [System] Electronic Sensing System [Power and Data Flow]</text><!--MD5=[69baca66d633bee4663b6b022bf4ea4f]
cluster Power System--><rect fill="#FFFFFF" filter="url(#f70xbqka1xfac)" height="105" style="stroke: #000000; stroke-width: 1.5;" width="527" x="652" y="67"/><text fill="#000000" font-family="sans-serif" font-size="14" font-weight="bold" lengthAdjust="spacingAndGlyphs" textLength="114" x="858.5" y="81.9951">Power System</text><!--MD5=[a62a56b87ab40b314025e74aa2de1504]
cluster PresSens--><rect fill="#FFFFFF" filter="url(#f70xbqka1xfac)" height="168" style="stroke: #000000; stroke-width: 1.5;" width="599" x="234" y="220"/><text fill="#000000" font-family="sans-serif" font-size="14" font-weight="bold" lengthAdjust="spacingAndGlyphs" textLength="203" x="432" y="234.9951">Pressure Sensing System</text><!--MD5=[62a9b3e1f06d7093c23d82dfa31bf6bd]
cluster Open--><rect fill="#FFFFFF" filter="url(#f70xbqka1xfac)" height="168" style="stroke: #000000; stroke-width: 1.5;" width="1004" x="196" y="604"/><text fill="#000000" font-family="sans-serif" font-size="14" font-weight="bold" lengthAdjust="spacingAndGlyphs" textLength="277" x="559.5" y="618.9951">Open-Source Flow Sensing System</text><!--MD5=[8ca44ef63c47614dc7e20c7803ace7f6]
cluster FDA--><rect fill="#FFFFFF" filter="url(#f70xbqka1xfac)" height="168" style="stroke: #000000; stroke-width: 1.5;" width="982" x="203" y="412"/><text fill="#000000" font-family="sans-serif" font-size="14" font-weight="bold" lengthAdjust="spacingAndGlyphs" textLength="287" x="550.5" y="426.9951">FDA-Approved Flow Sensing System</text><!--MD5=[7ac5496373f27f81cf75c14fdf13b2e5]
cluster Clinical Feedback--><rect fill="#FFFFFF" filter="url(#f70xbqka1xfac)" height="425" style="stroke: #000000; stroke-width: 1.5;" width="212" x="1534" y="142"/><text fill="#000000" font-family="sans-serif" font-size="14" font-weight="bold" lengthAdjust="spacingAndGlyphs" textLength="136" x="1572" y="156.9951">Clinical Feedback</text><!--MD5=[9c57b27997a76b2ab9c61836d6d898c8]
entity Pi--><rect fill="#FEFECE" filter="url(#f70xbqka1xfac)" height="52.5938" style="stroke: #A80036; stroke-width: 1.5;" width="140" x="1309" y="337.5"/><rect fill="#FEFECE" height="5" style="stroke: #A80036; stroke-width: 1.5;" width="10" x="1304" y="342.5"/><rect fill="#FEFECE" height="5" style="stroke: #A80036; stroke-width: 1.5;" width="10" x="1304" y="380.0938"/><text fill="#000000" font-family="sans-serif" font-size="14" font-style="italic" lengthAdjust="spacingAndGlyphs" textLength="120" x="1319" y="360.4951">«Microcontroller»</text><text fill="#000000" font-family="sans-serif" font-size="14" lengthAdjust="spacingAndGlyphs" textLength="112" x="1323" y="376.792">Raspberry Pi B+</text><!--MD5=[3ebe3fc39788d9586b6a788237dafbe0]
entity WO--><ellipse cx="330.5" cy="129" fill="#FEFECE" filter="url(#f70xbqka1xfac)" rx="8" ry="8" style="stroke: #A80036; stroke-width: 2.0;"/><text fill="#000000" font-family="sans-serif" font-size="14" lengthAdjust="spacingAndGlyphs" textLength="73" x="294" y="158.9951">Wall Outlet</text><!--MD5=[f138531b5c7ec98bcba2d29a7db668a7]
entity Doc--><ellipse cx="1864.5" cy="340.7969" fill="#FEFECE" filter="url(#f70xbqka1xfac)" rx="8" ry="8" style="stroke: #A80036; stroke-width: 1.5;"/><path d="M1864.5,348.7969 L1864.5,375.7969 M1851.5,356.7969 L1877.5,356.7969 M1864.5,375.7969 L1851.5,390.7969 M1864.5,375.7969 L1877.5,390.7969 " fill="none" filter="url(#f70xbqka1xfac)" style="stroke: #A80036; stroke-width: 1.5;"/><text fill="#000000" font-family="sans-serif" font-size="14" lengthAdjust="spacingAndGlyphs" textLength="56" x="1836.5" y="409.292">Clinician</text><text fill="#000000" font-family="sans-serif" font-size="14" font-style="italic" lengthAdjust="spacingAndGlyphs" textLength="67" x="1831" y="327.9951">«Human»</text><!--MD5=[4dc362a4069dbfa4117156f162731ce6]
entity Pat--><ellipse cx="71.5" cy="452.7969" fill="#FEFECE" filter="url(#f70xbqka1xfac)" rx="8" ry="8" style="stroke: #A80036; stroke-width: 1.5;"/><path d="M71.5,460.7969 L71.5,487.7969 M58.5,468.7969 L84.5,468.7969 M71.5,487.7969 L58.5,502.7969 M71.5,487.7969 L84.5,502.7969 " fill="none" filter="url(#f70xbqka1xfac)" style="stroke: #A80036; stroke-width: 1.5;"/><text fill="#000000" font-family="sans-serif" font-size="14" lengthAdjust="spacingAndGlyphs" textLength="48" x="47.5" y="521.292">Patient</text><text fill="#000000" font-family="sans-serif" font-size="14" font-style="italic" lengthAdjust="spacingAndGlyphs" textLength="67" x="38" y="439.9951">«Human»</text><!--MD5=[3731d842061e492f7914f1cd8c71dbe9]
entity VR--><rect fill="#FEFECE" filter="url(#f70xbqka1xfac)" height="52.5938" style="stroke: #A80036; stroke-width: 1.5;" width="161" x="1002" y="102.5"/><rect fill="#FEFECE" height="5" style="stroke: #A80036; stroke-width: 1.5;" width="10" x="997" y="107.5"/><rect fill="#FEFECE" height="5" style="stroke: #A80036; stroke-width: 1.5;" width="10" x="997" y="145.0938"/><text fill="#000000" font-family="sans-serif" font-size="14" font-style="italic" lengthAdjust="spacingAndGlyphs" textLength="141" x="1012" y="125.4951">«Voltage Regulator»</text><text fill="#000000" font-family="sans-serif" font-size="14" lengthAdjust="spacingAndGlyphs" textLength="78" x="1043.5" y="141.792">LM259SX-5</text><!--MD5=[e4aaec21de269c7bd285ce6876c0ce8e]
entity PJ--><rect fill="#FEFECE" filter="url(#f70xbqka1xfac)" height="36.2969" style="stroke: #A80036; stroke-width: 1.5;" width="94" x="668" y="111"/><rect fill="#FEFECE" height="5" style="stroke: #A80036; stroke-width: 1.5;" width="10" x="663" y="116"/><rect fill="#FEFECE" height="5" style="stroke: #A80036; stroke-width: 1.5;" width="10" x="663" y="137.2969"/><text fill="#000000" font-family="sans-serif" font-size="14" lengthAdjust="spacingAndGlyphs" textLength="74" x="678" y="133.9951">Power Jack</text><!--MD5=[95a3782a1e0b8f7d06e63642eb7624f3]
entity Pres--><rect fill="#FEFECE" filter="url(#f70xbqka1xfac)" height="52.5938" style="stroke: #A80036; stroke-width: 1.5;" width="161" x="250" y="277.5"/><rect fill="#FEFECE" height="5" style="stroke: #A80036; stroke-width: 1.5;" width="10" x="245" y="282.5"/><rect fill="#FEFECE" height="5" style="stroke: #A80036; stroke-width: 1.5;" width="10" x="245" y="320.0938"/><text fill="#000000" font-family="sans-serif" font-size="14" font-style="italic" lengthAdjust="spacingAndGlyphs" textLength="141" x="260" y="300.4951">«Pressure Sensors»</text><text fill="#000000" font-family="sans-serif" font-size="14" lengthAdjust="spacingAndGlyphs" textLength="113" x="274" y="316.792">SPL06 - 007 (x5)</text><!--MD5=[d90744675e3b737dad790a8684596ff6]
entity MUX1--><rect fill="#FEFECE" filter="url(#f70xbqka1xfac)" height="52.5938" style="stroke: #A80036; stroke-width: 1.5;" width="204" x="613" y="274.5"/><rect fill="#FEFECE" height="5" style="stroke: #A80036; stroke-width: 1.5;" width="10" x="608" y="279.5"/><rect fill="#FEFECE" height="5" style="stroke: #A80036; stroke-width: 1.5;" width="10" x="608" y="317.0938"/><text fill="#000000" font-family="sans-serif" font-size="14" font-style="italic" lengthAdjust="spacingAndGlyphs" textLength="184" x="623" y="297.4951">«I2C Pressure Multiplexer»</text><text fill="#000000" font-family="sans-serif" font-size="14" lengthAdjust="spacingAndGlyphs" textLength="73" x="678.5" y="313.792">TCA9548A</text><!--MD5=[b2772bca14f4f0ded085b55f270cbaf2]
entity AAS--><rect fill="#FEFECE" filter="url(#f70xbqka1xfac)" height="52.5938" style="stroke: #A80036; stroke-width: 1.5;" width="237" x="212" y="640.5"/><rect fill="#FEFECE" height="5" style="stroke: #A80036; stroke-width: 1.5;" width="10" x="207" y="645.5"/><rect fill="#FEFECE" height="5" style="stroke: #A80036; stroke-width: 1.5;" width="10" x="207" y="683.0938"/><text fill="#000000" font-family="sans-serif" font-size="14" font-style="italic" lengthAdjust="spacingAndGlyphs" textLength="133" x="264" y="663.4951">«Generic Sensors»</text><text fill="#000000" font-family="sans-serif" font-size="14" lengthAdjust="spacingAndGlyphs" textLength="217" x="222" y="679.792">Automotive Airflow Sensors (x4)</text><!--MD5=[42811681d3549880614161e8bda90a35]
entity ADC--><rect fill="#FEFECE" filter="url(#f70xbqka1xfac)" height="52.5938" style="stroke: #A80036; stroke-width: 1.5;" width="203" x="981" y="639.5"/><rect fill="#FEFECE" height="5" style="stroke: #A80036; stroke-width: 1.5;" width="10" x="976" y="644.5"/><rect fill="#FEFECE" height="5" style="stroke: #A80036; stroke-width: 1.5;" width="10" x="976" y="682.0938"/><text fill="#000000" font-family="sans-serif" font-size="14" font-style="italic" lengthAdjust="spacingAndGlyphs" textLength="183" x="991" y="662.4951">«Analog Digital Converter»</text><text fill="#000000" font-family="sans-serif" font-size="14" lengthAdjust="spacingAndGlyphs" textLength="73" x="1046" y="678.792">TCA9548A</text><!--MD5=[c9ddee325b7b7bec99cd3de9fa4af928]
entity ACon--><ellipse cx="715" cy="668" fill="#FEFECE" filter="url(#f70xbqka1xfac)" rx="8" ry="8" style="stroke: #A80036; stroke-width: 2.0;"/><text fill="#000000" font-family="sans-serif" font-size="14" lengthAdjust="spacingAndGlyphs" textLength="241" x="594.5" y="697.9951">Automotive Airflow Connectors (x4)</text><!--MD5=[5c7c32375199ad5dc7dce2aeef312364]
entity Sens--><rect fill="#FEFECE" filter="url(#f70xbqka1xfac)" height="52.5938" style="stroke: #A80036; stroke-width: 1.5;" width="223" x="219" y="449.5"/><rect fill="#FEFECE" height="5" style="stroke: #A80036; stroke-width: 1.5;" width="10" x="214" y="454.5"/><rect fill="#FEFECE" height="5" style="stroke: #A80036; stroke-width: 1.5;" width="10" x="214" y="492.0938"/><text fill="#000000" font-family="sans-serif" font-size="14" font-style="italic" lengthAdjust="spacingAndGlyphs" textLength="143" x="259" y="472.4951">«Sensirion Sensors»</text><text fill="#000000" font-family="sans-serif" font-size="14" lengthAdjust="spacingAndGlyphs" textLength="203" x="229" y="488.792">Sensirion Airflow Sensors (x4)</text><!--MD5=[e1af7d7aa319dee8443b1a74aa762d84]
entity MUX2--><rect fill="#FEFECE" filter="url(#f70xbqka1xfac)" height="52.5938" style="stroke: #A80036; stroke-width: 1.5;" width="173" x="996" y="447.5"/><rect fill="#FEFECE" height="5" style="stroke: #A80036; stroke-width: 1.5;" width="10" x="991" y="452.5"/><rect fill="#FEFECE" height="5" style="stroke: #A80036; stroke-width: 1.5;" width="10" x="991" y="490.0938"/><text fill="#000000" font-family="sans-serif" font-size="14" font-style="italic" lengthAdjust="spacingAndGlyphs" textLength="153" x="1006" y="470.4951">«I2C Flow Multiplexer»</text><text fill="#000000" font-family="sans-serif" font-size="14" lengthAdjust="spacingAndGlyphs" textLength="73" x="1046" y="486.792">TCA9548A</text><!--MD5=[719972010eb4348acdf85e57300ab58a]
entity SCon--><ellipse cx="715" cy="476" fill="#FEFECE" filter="url(#f70xbqka1xfac)" rx="8" ry="8" style="stroke: #A80036; stroke-width: 2.0;"/><text fill="#000000" font-family="sans-serif" font-size="14" lengthAdjust="spacingAndGlyphs" textLength="227" x="601.5" y="505.9951">Sensirion Airflow Connectors (x4)</text><!--MD5=[70d610b3ca277a70fbee293757a13e46]
entity Display--><ellipse cx="1640" cy="522" fill="#FEFECE" filter="url(#f70xbqka1xfac)" rx="8" ry="8" style="stroke: #A80036; stroke-width: 2.0;"/><text fill="#000000" font-family="sans-serif" font-size="14" lengthAdjust="spacingAndGlyphs" textLength="165" x="1557.5" y="551.9951">Raspberry Pi B+ Display</text><text fill="#000000" font-family="sans-serif" font-size="14" font-style="italic" lengthAdjust="spacingAndGlyphs" textLength="67" x="1606.5" y="501.6982">«Display»</text><!--MD5=[6501f345ffec8c404045b662ce434929]
entity LED--><ellipse cx="1640" cy="364" fill="#FEFECE" filter="url(#f70xbqka1xfac)" rx="8" ry="8" style="stroke: #A80036; stroke-width: 2.0;"/><text fill="#000000" font-family="sans-serif" font-size="14" lengthAdjust="spacingAndGlyphs" textLength="128" x="1576" y="393.9951">Indicator LEDs (x8)</text><!--MD5=[9861b719929120b3c1394e9627ae51af]
entity Aud--><ellipse cx="1640" cy="206" fill="#FEFECE" filter="url(#f70xbqka1xfac)" rx="8" ry="8" style="stroke: #A80036; stroke-width: 2.0;"/><text fill="#000000" font-family="sans-serif" font-size="14" lengthAdjust="spacingAndGlyphs" textLength="81" x="1599.5" y="235.9951">Audio Alarm</text><!--MD5=[65dce5911937bb9e61dbf35816f99151]
link WO to PJ--><path d="M339.84,129 C381.72,129 570.55,129 662.87,129 " fill="none" id="WO-&gt;PJ" style="stroke: #A80036; stroke-width: 1.0; stroke-dasharray: 7.0,7.0;"/><polygon fill="#A80036" points="668,129,659,125,663,129,659,133,668,129" style="stroke: #A80036; stroke-width: 1.0;"/><!--MD5=[c716c3c8091a5e10deff367933687a7b]
link PJ to VR--><path d="M762.29,129 C821.1,129 923.71,129 996.72,129 " fill="none" id="PJ-&gt;VR" style="stroke: #A80036; stroke-width: 1.0; stroke-dasharray: 7.0,7.0;"/><polygon fill="#A80036" points="1001.92,129,992.92,125,996.92,129,992.92,133,1001.92,129" style="stroke: #A80036; stroke-width: 1.0;"/><!--MD5=[23e8353a21e5356663650aad2400a8f3]
link VR to Pi--><path d="M1163.26,133.94 C1186.81,138.25 1211.7,145.83 1232,159 C1298.44,202.12 1343.99,286.96 1364.93,332.82 " fill="none" id="VR-&gt;Pi" style="stroke: #A80036; stroke-width: 1.0; stroke-dasharray: 7.0,7.0;"/><polygon fill="#A80036" points="1367,337.4,1366.9429,327.5513,1364.9428,332.8428,1359.6513,330.8428,1367,337.4" style="stroke: #A80036; stroke-width: 1.0;"/><text fill="#000000" font-family="sans-serif" font-size="13" lengthAdjust="spacingAndGlyphs" textLength="17" x="1241" y="163.0669">5V</text><!--MD5=[22372af9dee4c8298be32aa218ea21b1]
link Pres to MUX1--><path d="M411.22,303.37 C469.79,302.92 549.8,302.29 612.87,301.79 " fill="none" id="Pres-MUX1" style="stroke: #A80036; stroke-width: 1.0; stroke-dasharray: 7.0,7.0;"/><text fill="#000000" font-family="sans-serif" font-size="13" lengthAdjust="spacingAndGlyphs" textLength="36" x="500" y="299.0669">«I2C»</text><!--MD5=[e08ab81de073eba21edf8b2736bacb82]
link AAS to ACon--><path d="M449.12,667.31 C546.17,667.56 673.06,667.89 705.94,667.98 " fill="none" id="AAS-ACon" style="stroke: #A80036; stroke-width: 1.0;"/><!--MD5=[bb2bd11a8d954ad14b80421001a43b7b]
link ACon to ADC--><path d="M724.32,667.95 C758.06,667.77 887.3,667.06 980.63,666.55 " fill="none" id="ACon-ADC" style="stroke: #A80036; stroke-width: 1.0; stroke-dasharray: 7.0,7.0;"/><text fill="#000000" font-family="sans-serif" font-size="13" lengthAdjust="spacingAndGlyphs" textLength="36" x="894" y="663.0669">«SPI»</text><!--MD5=[61ab6338072ce9ff550fc55ee64a7ab8]
link Sens to SCon--><path d="M442.13,476 C539.66,476 671.41,476 705.61,476 " fill="none" id="Sens-SCon" style="stroke: #A80036; stroke-width: 1.0;"/><!--MD5=[78056703e8174c9cca573dfb11f98e03]
link SCon to MUX2--><path d="M724.32,475.95 C759.92,475.76 901.84,474.98 995.72,474.47 " fill="none" id="SCon-MUX2" style="stroke: #A80036; stroke-width: 1.0; stroke-dasharray: 7.0,7.0;"/><text fill="#000000" font-family="sans-serif" font-size="13" lengthAdjust="spacingAndGlyphs" textLength="36" x="894" y="471.0669">«I2C»</text><!--MD5=[3c23a70da753dd75fb8d4d6761c86d97]
link Pat to Sens--><path d="M105.05,476 C132.65,476 173.96,476 213.65,476 " fill="none" id="Pat-&gt;Sens" style="stroke: #A80036; stroke-width: 1.0; stroke-dasharray: 7.0,7.0;"/><polygon fill="#A80036" points="218.99,476,209.99,472,213.99,476,209.99,480,218.99,476" style="stroke: #A80036; stroke-width: 1.0;"/><!--MD5=[185906c24e0a518f124d186f8670d115]
link Pat to Pres--><path d="M105.06,453.83 C122.51,441.98 144.4,427.15 164,414 C204.85,386.59 251.54,355.58 284.89,333.49 " fill="none" id="Pat-&gt;Pres" style="stroke: #A80036; stroke-width: 1.0; stroke-dasharray: 7.0,7.0;"/><polygon fill="#A80036" points="289.3,330.57,279.5862,332.1956,285.1288,333.327,283.9974,338.8696,289.3,330.57" style="stroke: #A80036; stroke-width: 1.0;"/><!--MD5=[44f6d33cb73da69227f8185c8079f1fd]
link Pat to AAS--><path d="M101.02,525.12 C117.04,549.31 138.86,577.42 164,597 C186.01,614.14 212.84,627.85 238.44,638.43 " fill="none" id="Pat-&gt;AAS" style="stroke: #A80036; stroke-width: 1.0; stroke-dasharray: 7.0,7.0;"/><polygon fill="#A80036" points="243.2,640.37,236.3744,633.27,238.5695,638.4835,233.356,640.6787,243.2,640.37" style="stroke: #A80036; stroke-width: 1.0;"/><!--MD5=[cb73ff80b30a12b195a6ecf83b7978e3]
link MUX2 to Pi--><path d="M1169.11,460.54 C1190.02,456.06 1212.09,450.29 1232,443 C1267.19,430.12 1304.31,409.94 1332.31,393.2 " fill="none" id="MUX2-&gt;Pi" style="stroke: #A80036; stroke-width: 1.0; stroke-dasharray: 7.0,7.0;"/><polygon fill="#A80036" points="1336.72,390.54,1326.9446,391.7405,1332.4325,393.1125,1331.0605,398.6004,1336.72,390.54" style="stroke: #A80036; stroke-width: 1.0;"/><!--MD5=[5bdbcbba173b9ec474037f78d5d91eef]
link ADC to Pi--><path d="M1162.18,639.49 C1186.35,628.83 1211.86,614.77 1232,597 C1297.75,538.98 1344.31,444.26 1365.37,395.38 " fill="none" id="ADC-&gt;Pi" style="stroke: #A80036; stroke-width: 1.0; stroke-dasharray: 7.0,7.0;"/><polygon fill="#A80036" points="1367.45,390.51,1360.2458,397.2256,1365.4925,395.1109,1367.6072,400.3576,1367.45,390.51" style="stroke: #A80036; stroke-width: 1.0;"/><!--MD5=[2771e83feda2140352d7d427dcaade38]
link MUX1 to Pi--><path d="M817.26,310.64 C951.28,323.39 1184.43,345.58 1303.45,356.91 " fill="none" id="MUX1-&gt;Pi" style="stroke: #A80036; stroke-width: 1.0; stroke-dasharray: 7.0,7.0;"/><polygon fill="#A80036" points="1308.69,357.4,1300.1078,352.5682,1303.7123,356.928,1299.3526,360.5325,1308.69,357.4" style="stroke: #A80036; stroke-width: 1.0;"/><!--MD5=[6004182150c6439132ca022b8248de39]
link Pi to LED--><path d="M1449.07,364 C1509.98,364 1593.89,364 1625.89,364 " fill="none" id="Pi-&gt;LED" style="stroke: #A80036; stroke-width: 1.0; stroke-dasharray: 7.0,7.0;"/><polygon fill="#A80036" points="1630.9,364,1621.9,360,1625.9,364,1621.9,368,1630.9,364" style="stroke: #A80036; stroke-width: 1.0;"/><!--MD5=[b502c9f6e3f7524c28b66397a476938f]
link Pi to Aud--><path d="M1423.64,337.38 C1484.07,300.51 1589.91,235.95 1626.29,213.75 " fill="none" id="Pi-&gt;Aud" style="stroke: #A80036; stroke-width: 1.0; stroke-dasharray: 7.0,7.0;"/><polygon fill="#A80036" points="1630.76,211.03,1620.9943,212.3073,1626.4929,213.6361,1625.1641,219.1347,1630.76,211.03" style="stroke: #A80036; stroke-width: 1.0;"/><!--MD5=[f070feb7113c8a0843c594b82e9f6fc8]
link Pi to Display--><path d="M1423.64,390.62 C1484.07,427.49 1589.91,492.05 1626.29,514.25 " fill="none" id="Pi-&gt;Display" style="stroke: #A80036; stroke-width: 1.0; stroke-dasharray: 7.0,7.0;"/><polygon fill="#A80036" points="1630.76,516.97,1625.1641,508.8653,1626.4929,514.3639,1620.9943,515.6927,1630.76,516.97" style="stroke: #A80036; stroke-width: 1.0;"/><!--MD5=[84f02cc4c1757ad94a01989ca050c281]
link LED to Doc--><path d="M1649.18,364 C1677.44,364 1772.09,364 1825.68,364 " fill="none" id="LED-&gt;Doc" style="stroke: #A80036; stroke-width: 1.0; stroke-dasharray: 7.0,7.0;"/><polygon fill="#A80036" points="1830.73,364,1821.73,360,1825.73,364,1821.73,368,1830.73,364" style="stroke: #A80036; stroke-width: 1.0;"/><!--MD5=[73e0db9a52f44b07d4a85d535efbea00]
link Aud to Doc--><path d="M1649.25,211.71 C1667.95,224.65 1714.97,257.28 1754,285 C1778.19,302.18 1805.22,321.68 1826.38,337.01 " fill="none" id="Aud-&gt;Doc" style="stroke: #A80036; stroke-width: 1.0; stroke-dasharray: 7.0,7.0;"/><polygon fill="#A80036" points="1830.53,340.02,1825.6076,331.4894,1826.4876,337.0774,1820.8996,337.9574,1830.53,340.02" style="stroke: #A80036; stroke-width: 1.0;"/><!--MD5=[408dee324a96c85004691f3f8f8e9a65]
link Display to Doc--><path d="M1649.25,516.29 C1667.95,503.35 1714.97,470.72 1754,443 C1778.19,425.82 1805.22,406.32 1826.38,390.99 " fill="none" id="Display-&gt;Doc" style="stroke: #A80036; stroke-width: 1.0; stroke-dasharray: 7.0,7.0;"/><polygon fill="#A80036" points="1830.53,387.98,1820.8996,390.0426,1826.4876,390.9226,1825.6076,396.5106,1830.53,387.98" style="stroke: #A80036; stroke-width: 1.0;"/><!--MD5=[3f25ede50ada78b0cb7a475027069e5d]
@startuml
left to right direction
skinparam nodesep 100
skinparam ranksep 100
frame "ibd [System] Electronic Sensing System [Power and Data Flow]" {
  [Raspberry Pi B+] <<Microcontroller>> as [Pi]
  () "Wall Outlet" as WO

  rectangle "Power System" {
    [LM259SX-5] <<Voltage Regulator>> as [VR]
    [Power Jack] as PJ
    WO ..> PJ
    PJ ..> VR
    VR ..> Pi: 5V
  }

  together {
    rectangle "Pressure Sensing System" as PresSens{
      [SPL06 - 007 (x5)] <<Pressure Sensors>> as Pres
      [TCA9548A] <<I2C Pressure Multiplexer>> as [MUX1]
      Pres .. MUX1: <<I2C>>
    }

    rectangle "Open-Source Flow Sensing System"  as Open{
      [Automotive Airflow Sensors (x4)] <<Generic Sensors>> as AAS
      [TCA9548A] <<Analog Digital Converter>> as [ADC]
      () "Automotive Airflow Connectors (x4)" as ACon
      AAS - - ACon
      ACon .. ADC: <<SPI>>
    }

    rectangle "FDA-Approved Flow Sensing System"  as FDA{
      [Sensirion Airflow Sensors (x4)] <<Sensirion Sensors>> as Sens
      [TCA9548A] <<I2C Flow Multiplexer>> as [MUX2]
      () "Sensirion Airflow Connectors (x4)" as SCon
      Sens - - SCon
      SCon .. MUX2: <<I2C>>
    }
  }


  "Clinician" <<Human>> as Doc
  "Patient" <<Human>> as Pat

  Pat ..> Sens
  Pat ..> Pres
  Pat ..> AAS


  MUX2 ..> Pi
  ADC  ..> Pi
  MUX1 ..> Pi

  rectangle "Clinical Feedback" {
      () "Raspberry Pi B+ Display" <<Display>> as Display
      () "Indicator LEDs (x8)" as LED
      () "Audio Alarm"  as Aud
  }

  Pi ..> LED
  Pi ..> Aud
  Pi ..> Display

  LED ..> Doc
  Aud ..> Doc
  Display ..> Doc
}
@enduml

PlantUML version 1.2020.06(Sun Apr 05 07:38:32 CDT 2020)
(APACHE source distribution)
Java Runtime: OpenJDK Runtime Environment
JVM: OpenJDK 64-Bit Server VM
Java Version: 11.0.7+10-post-Ubuntu-3ubuntu1
Operating System: Linux
Default Encoding: ANSI_X3.4-1968
Language: en
Country: US
--></g></svg>