<?xml version="1.0" encoding="UTF-8" standalone="no"?><svg xmlns="http://www.w3.org/2000/svg" xmlns:xlink="http://www.w3.org/1999/xlink" contentScriptType="application/ecmascript" contentStyleType="text/css" height="399px" preserveAspectRatio="none" style="width:2022px;height:399px;" version="1.1" viewBox="0 0 2022 399" width="2022px" zoomAndPan="magnify"><defs><filter height="300%" id="f15kso20tby8l5" width="300%" x="-1" y="-1"><feGaussianBlur result="blurOut" stdDeviation="2.0"/><feColorMatrix in="blurOut" result="blurOut2" type="matrix" values="0 0 0 0 0 0 0 0 0 0 0 0 0 0 0 0 0 0 .4 0"/><feOffset dx="4.0" dy="4.0" in="blurOut2" result="blurOut3"/><feBlend in="SourceGraphic" in2="blurOut3" mode="normal"/></filter></defs><g><!--MD5=[226479374d8d1c593e310402100533bf]
cluster ibd [System] Ventilator Splitter Box [Air flow] --><rect fill="#FFFFFF" filter="url(#f15kso20tby8l5)" height="364" style="stroke: #000000; stroke-width: 1.5;" width="1989" x="22" y="24"/><path d="M392,25 L392,33.2969 L382,43.2969 L22,43.2969 " fill="none" style="stroke: #000000; stroke-width: 1.5;"/><text fill="#000000" font-family="sans-serif" font-size="14" font-weight="bold" lengthAdjust="spacingAndGlyphs" textLength="355" x="25" y="37.9951">ibd [System] Ventilator Splitter Box [Air flow]</text><!--MD5=[f7db059fb94f3f154cd750cda42c626c]
cluster ventilator--><rect fill="#FFFFFF" filter="url(#f15kso20tby8l5)" height="218" style="stroke: #000000; stroke-width: 1.5;" width="170" x="46" y="82"/><rect fill="#FFFFFF" height="10" style="stroke: #000000; stroke-width: 1.5;" width="15" x="196" y="87"/><rect fill="#FFFFFF" height="2" style="stroke: #000000; stroke-width: 1.5;" width="4" x="194" y="89"/><rect fill="#FFFFFF" height="2" style="stroke: #000000; stroke-width: 1.5;" width="4" x="194" y="93"/><text fill="#000000" font-family="sans-serif" font-size="14" font-style="italic" lengthAdjust="spacingAndGlyphs" textLength="82" x="90" y="107.9951">«ventilator»</text><text fill="#000000" font-family="sans-serif" font-size="14" font-weight="bold" lengthAdjust="spacingAndGlyphs" textLength="76" x="93" y="124.292">LTV-1200</text><!--MD5=[fdc5e125a70ff30a57906774a93a0bb5]
cluster vsb--><rect fill="#FFFFFF" filter="url(#f15kso20tby8l5)" height="297" style="stroke: #000000; stroke-width: 1.5;" width="1094" x="477" y="67"/><rect fill="#FFFFFF" height="10" style="stroke: #000000; stroke-width: 1.5;" width="15" x="1551" y="72"/><rect fill="#FFFFFF" height="2" style="stroke: #000000; stroke-width: 1.5;" width="4" x="1549" y="74"/><rect fill="#FFFFFF" height="2" style="stroke: #000000; stroke-width: 1.5;" width="4" x="1549" y="78"/><text fill="#000000" font-family="sans-serif" font-size="14" font-style="italic" lengthAdjust="spacingAndGlyphs" textLength="55" x="996.5" y="92.9951">«block»</text><text fill="#000000" font-family="sans-serif" font-size="14" font-weight="bold" lengthAdjust="spacingAndGlyphs" textLength="173" x="937.5" y="109.292">Ventilator Splitter Box</text><!--MD5=[320cb30c242bc5a52e1169868a9af79a]
entity patient--><ellipse cx="1962" cy="194.7969" fill="#FEFECE" filter="url(#f15kso20tby8l5)" rx="8" ry="8" style="stroke: #A80036; stroke-width: 1.5;"/><path d="M1962,202.7969 L1962,229.7969 M1949,210.7969 L1975,210.7969 M1962,229.7969 L1949,244.7969 M1962,229.7969 L1975,244.7969 " fill="none" filter="url(#f15kso20tby8l5)" style="stroke: #A80036; stroke-width: 1.5;"/><text fill="#000000" font-family="sans-serif" font-size="14" font-weight="bold" lengthAdjust="spacingAndGlyphs" textLength="55" x="1934.5" y="263.292">patient</text><text fill="#000000" font-family="sans-serif" font-size="14" font-style="italic" lengthAdjust="spacingAndGlyphs" textLength="66" x="1929" y="181.9951">«human»</text><!--MD5=[aa9e818d8b3d85ba9128efa079c533d2]
entity armIn--><rect fill="#FEFECE" filter="url(#f15kso20tby8l5)" height="52.5938" style="stroke: #A80036; stroke-width: 1.5;" width="173" x="260" y="248.5"/><rect fill="#FEFECE" height="5" style="stroke: #A80036; stroke-width: 1.5;" width="10" x="255" y="253.5"/><rect fill="#FEFECE" height="5" style="stroke: #A80036; stroke-width: 1.5;" width="10" x="255" y="291.0938"/><text fill="#000000" font-family="sans-serif" font-size="14" font-style="italic" lengthAdjust="spacingAndGlyphs" textLength="122" x="285.5" y="271.4951">«Inspiratory Arm»</text><text fill="#000000" font-family="sans-serif" font-size="14" font-weight="bold" lengthAdjust="spacingAndGlyphs" textLength="153" x="270" y="287.792">Inspiratory Arm P/N</text><!--MD5=[b1df6f14fff975f4c9690eefa5c4bfe4]
entity armOut--><rect fill="#FEFECE" filter="url(#f15kso20tby8l5)" height="52.5938" style="stroke: #A80036; stroke-width: 1.5;" width="168" x="262.5" y="125.5"/><rect fill="#FEFECE" height="5" style="stroke: #A80036; stroke-width: 1.5;" width="10" x="257.5" y="130.5"/><rect fill="#FEFECE" height="5" style="stroke: #A80036; stroke-width: 1.5;" width="10" x="257.5" y="168.0938"/><text fill="#000000" font-family="sans-serif" font-size="14" font-style="italic" lengthAdjust="spacingAndGlyphs" textLength="119" x="287" y="148.4951">«Expiratory Arm»</text><text fill="#000000" font-family="sans-serif" font-size="14" font-weight="bold" lengthAdjust="spacingAndGlyphs" textLength="148" x="272.5" y="164.792">Expiratory Arm P/N</text><!--MD5=[727104f7659a26c267f84f5527a74fa2]
entity arm2patIn--><rect fill="#FEFECE" filter="url(#f15kso20tby8l5)" height="52.5938" style="stroke: #A80036; stroke-width: 1.5;" width="254" x="1615" y="235.5"/><rect fill="#FEFECE" height="5" style="stroke: #A80036; stroke-width: 1.5;" width="10" x="1610" y="240.5"/><rect fill="#FEFECE" height="5" style="stroke: #A80036; stroke-width: 1.5;" width="10" x="1610" y="278.0938"/><text fill="#000000" font-family="sans-serif" font-size="14" font-style="italic" lengthAdjust="spacingAndGlyphs" textLength="122" x="1681" y="258.4951">«Inspiratory Arm»</text><text fill="#000000" font-family="sans-serif" font-size="14" font-weight="bold" lengthAdjust="spacingAndGlyphs" textLength="234" x="1625" y="274.792">Inspiratory Arm to patient P/N</text><!--MD5=[87b1f60899d0c7e84ff6b99d50a6d53d]
entity arm2patOut--><rect fill="#FEFECE" filter="url(#f15kso20tby8l5)" height="52.5938" style="stroke: #A80036; stroke-width: 1.5;" width="249" x="1617.5" y="147.5"/><rect fill="#FEFECE" height="5" style="stroke: #A80036; stroke-width: 1.5;" width="10" x="1612.5" y="152.5"/><rect fill="#FEFECE" height="5" style="stroke: #A80036; stroke-width: 1.5;" width="10" x="1612.5" y="190.0938"/><text fill="#000000" font-family="sans-serif" font-size="14" font-style="italic" lengthAdjust="spacingAndGlyphs" textLength="119" x="1682.5" y="170.4951">«Expiratory Arm»</text><text fill="#000000" font-family="sans-serif" font-size="14" font-weight="bold" lengthAdjust="spacingAndGlyphs" textLength="229" x="1627.5" y="186.792">Expiratory Arm to patient P/N</text><!--MD5=[ff8bf2a3348c5e3e02cbef032d803913]
entity pIn--><ellipse cx="131" cy="255" fill="#FEFECE" filter="url(#f15kso20tby8l5)" rx="8" ry="8" style="stroke: #A80036; stroke-width: 2.0;"/><text fill="#000000" font-family="sans-serif" font-size="14" font-weight="bold" lengthAdjust="spacingAndGlyphs" textLength="123" x="69.5" y="284.9951">Inspiratory Port</text><!--MD5=[5986141c496af38c6ae6a67c72b97400]
entity pOut--><ellipse cx="131" cy="162" fill="#FEFECE" filter="url(#f15kso20tby8l5)" rx="8" ry="8" style="stroke: #A80036; stroke-width: 2.0;"/><text fill="#000000" font-family="sans-serif" font-size="14" font-weight="bold" lengthAdjust="spacingAndGlyphs" textLength="118" x="72" y="191.9951">Expiratory Port</text><!--MD5=[dde16d280d1ccdf194689a6521414395]
entity vsbIn--><rect fill="#FEFECE" filter="url(#f15kso20tby8l5)" height="52.5938" style="stroke: #A80036; stroke-width: 1.5;" width="169" x="691" y="294.5"/><rect fill="#FEFECE" height="5" style="stroke: #A80036; stroke-width: 1.5;" width="10" x="686" y="299.5"/><rect fill="#FEFECE" height="5" style="stroke: #A80036; stroke-width: 1.5;" width="10" x="686" y="337.0938"/><text fill="#000000" font-family="sans-serif" font-size="14" font-style="italic" lengthAdjust="spacingAndGlyphs" textLength="55" x="748" y="317.4951">«block»</text><text fill="#000000" font-family="sans-serif" font-size="14" font-weight="bold" lengthAdjust="spacingAndGlyphs" textLength="149" x="701" y="333.792">Inspiratory Section</text><!--MD5=[96e51b74cc925c600e89216052e71526]
entity vsbOut--><rect fill="#FEFECE" filter="url(#f15kso20tby8l5)" height="52.5938" style="stroke: #A80036; stroke-width: 1.5;" width="164" x="693.5" y="118.5"/><rect fill="#FEFECE" height="5" style="stroke: #A80036; stroke-width: 1.5;" width="10" x="688.5" y="123.5"/><rect fill="#FEFECE" height="5" style="stroke: #A80036; stroke-width: 1.5;" width="10" x="688.5" y="161.0938"/><text fill="#000000" font-family="sans-serif" font-size="14" font-style="italic" lengthAdjust="spacingAndGlyphs" textLength="55" x="748" y="141.4951">«block»</text><text fill="#000000" font-family="sans-serif" font-size="14" font-weight="bold" lengthAdjust="spacingAndGlyphs" textLength="144" x="703.5" y="157.792">Expiratory Section</text><!--MD5=[10d8a4dbe12dd16fea163ce3d6044365]
entity vsbpIn--><ellipse cx="562" cy="280" fill="#FEFECE" filter="url(#f15kso20tby8l5)" rx="8" ry="8" style="stroke: #A80036; stroke-width: 2.0;"/><text fill="#000000" font-family="sans-serif" font-size="14" font-weight="bold" lengthAdjust="spacingAndGlyphs" textLength="123" x="500.5" y="309.9951">Inspiratory Port</text><!--MD5=[7779b6b7b417fcab36c1e258e412925b]
entity vsbpOut--><ellipse cx="562" cy="150" fill="#FEFECE" filter="url(#f15kso20tby8l5)" rx="8" ry="8" style="stroke: #A80036; stroke-width: 2.0;"/><text fill="#000000" font-family="sans-serif" font-size="14" font-weight="bold" lengthAdjust="spacingAndGlyphs" textLength="118" x="503" y="179.9951">Expiratory Port</text><!--MD5=[ecb2462e2bd49757390f7a9519642674]
entity bc--><rect fill="#FEFECE" filter="url(#f15kso20tby8l5)" height="52.5938" style="stroke: #A80036; stroke-width: 1.5;" width="139" x="706" y="206.5"/><rect fill="#FEFECE" height="5" style="stroke: #A80036; stroke-width: 1.5;" width="10" x="701" y="211.5"/><rect fill="#FEFECE" height="5" style="stroke: #A80036; stroke-width: 1.5;" width="10" x="701" y="249.0938"/><text fill="#000000" font-family="sans-serif" font-size="14" font-style="italic" lengthAdjust="spacingAndGlyphs" textLength="90" x="730.5" y="229.4951">«bias circuit»</text><text fill="#000000" font-family="sans-serif" font-size="14" font-weight="bold" lengthAdjust="spacingAndGlyphs" textLength="119" x="716" y="245.792">Bias Circuit P/N</text><!--MD5=[014484fcae578ef1ebb9fb047866c562]
entity vIn1--><rect fill="#FEFECE" filter="url(#f15kso20tby8l5)" height="52.5938" style="stroke: #A80036; stroke-width: 1.5;" width="148" x="981" y="239.5"/><rect fill="#FEFECE" height="5" style="stroke: #A80036; stroke-width: 1.5;" width="10" x="976" y="244.5"/><rect fill="#FEFECE" height="5" style="stroke: #A80036; stroke-width: 1.5;" width="10" x="976" y="282.0938"/><text fill="#000000" font-family="sans-serif" font-size="14" font-style="italic" lengthAdjust="spacingAndGlyphs" textLength="102" x="1004" y="262.4951">«1-Way valve»</text><text fill="#000000" font-family="sans-serif" font-size="14" font-weight="bold" lengthAdjust="spacingAndGlyphs" textLength="128" x="991" y="278.792">1-Way Valve P/N</text><!--MD5=[03606ac6bddc0219af66c4819806073d]
entity fcIn1--><rect fill="#FEFECE" filter="url(#f15kso20tby8l5)" height="52.5938" style="stroke: #A80036; stroke-width: 1.5;" width="151" x="1189" y="238.5"/><rect fill="#FEFECE" height="5" style="stroke: #A80036; stroke-width: 1.5;" width="10" x="1184" y="243.5"/><rect fill="#FEFECE" height="5" style="stroke: #A80036; stroke-width: 1.5;" width="10" x="1184" y="281.0938"/><text fill="#000000" font-family="sans-serif" font-size="14" font-style="italic" lengthAdjust="spacingAndGlyphs" textLength="97" x="1216" y="261.4951">«flow control»</text><text fill="#000000" font-family="sans-serif" font-size="14" font-weight="bold" lengthAdjust="spacingAndGlyphs" textLength="131" x="1199" y="277.792">Flow Control P/N</text><!--MD5=[2ac64364a7681e86ea5dfad500fdd49e]
entity sIn1--><rect fill="#FEFECE" filter="url(#f15kso20tby8l5)" height="52.5938" style="stroke: #A80036; stroke-width: 1.5;" width="155" x="1400" y="235.5"/><rect fill="#FEFECE" height="5" style="stroke: #A80036; stroke-width: 1.5;" width="10" x="1395" y="240.5"/><rect fill="#FEFECE" height="5" style="stroke: #A80036; stroke-width: 1.5;" width="10" x="1395" y="278.0938"/><text fill="#000000" font-family="sans-serif" font-size="14" font-style="italic" lengthAdjust="spacingAndGlyphs" textLength="105" x="1425" y="258.4951">«shutoff valve»</text><text fill="#000000" font-family="sans-serif" font-size="14" font-weight="bold" lengthAdjust="spacingAndGlyphs" textLength="135" x="1410" y="274.792">Shutoff valve P/N</text><!--MD5=[3bff9e41180bb71d0a38d58cc35c0ef8]
entity vOut1--><rect fill="#FEFECE" filter="url(#f15kso20tby8l5)" height="52.5938" style="stroke: #A80036; stroke-width: 1.5;" width="148" x="981" y="141.5"/><rect fill="#FEFECE" height="5" style="stroke: #A80036; stroke-width: 1.5;" width="10" x="976" y="146.5"/><rect fill="#FEFECE" height="5" style="stroke: #A80036; stroke-width: 1.5;" width="10" x="976" y="184.0938"/><text fill="#000000" font-family="sans-serif" font-size="14" font-style="italic" lengthAdjust="spacingAndGlyphs" textLength="102" x="1004" y="164.4951">«1-Way valve»</text><text fill="#000000" font-family="sans-serif" font-size="14" font-weight="bold" lengthAdjust="spacingAndGlyphs" textLength="128" x="991" y="180.792">1-Way Valve P/N</text><!--MD5=[76c67f96575861e115a71a2e8c7dde3a]
entity fcOut1--><rect fill="#FEFECE" filter="url(#f15kso20tby8l5)" height="52.5938" style="stroke: #A80036; stroke-width: 1.5;" width="151" x="1189" y="146.5"/><rect fill="#FEFECE" height="5" style="stroke: #A80036; stroke-width: 1.5;" width="10" x="1184" y="151.5"/><rect fill="#FEFECE" height="5" style="stroke: #A80036; stroke-width: 1.5;" width="10" x="1184" y="189.0938"/><text fill="#000000" font-family="sans-serif" font-size="14" font-style="italic" lengthAdjust="spacingAndGlyphs" textLength="97" x="1216" y="169.4951">«flow control»</text><text fill="#000000" font-family="sans-serif" font-size="14" font-weight="bold" lengthAdjust="spacingAndGlyphs" textLength="131" x="1199" y="185.792">Flow Control P/N</text><!--MD5=[a1a1a7e96e2c267ef382cfdd34148837]
entity sOut1--><rect fill="#FEFECE" filter="url(#f15kso20tby8l5)" height="52.5938" style="stroke: #A80036; stroke-width: 1.5;" width="155" x="1400" y="147.5"/><rect fill="#FEFECE" height="5" style="stroke: #A80036; stroke-width: 1.5;" width="10" x="1395" y="152.5"/><rect fill="#FEFECE" height="5" style="stroke: #A80036; stroke-width: 1.5;" width="10" x="1395" y="190.0938"/><text fill="#000000" font-family="sans-serif" font-size="14" font-style="italic" lengthAdjust="spacingAndGlyphs" textLength="105" x="1425" y="170.4951">«shutoff valve»</text><text fill="#000000" font-family="sans-serif" font-size="14" font-weight="bold" lengthAdjust="spacingAndGlyphs" textLength="135" x="1410" y="186.792">Shutoff valve P/N</text><!--MD5=[b92cb9b9e71ff36c2f177908f4e1992a]
link pIn to armIn--><path d="M140.109,255.76 C159.253,257.553 209.098,262.222 254.887,266.512 " fill="none" id="pIn-&gt;armIn" style="stroke: #A80036; stroke-width: 1.0; stroke-dasharray: 7.0,7.0;"/><polygon fill="#A80036" points="259.875,266.979,251.288,262.1557,254.8969,266.5119,250.5407,270.1207,259.875,266.979" style="stroke: #A80036; stroke-width: 1.0;"/><!--MD5=[954a2588d49bd3266af3fc35f0c9d8e9]
reverse link pOut to armOut--><path d="M145.15,161.384 C168.319,160.299 218.146,157.965 262.311,155.896 " fill="none" id="pOut&lt;-armOut" style="stroke: #A80036; stroke-width: 1.0; stroke-dasharray: 7.0,7.0;"/><polygon fill="#A80036" points="140.109,161.62,149.2866,165.1939,145.1035,161.3857,148.9117,157.2027,140.109,161.62" style="stroke: #A80036; stroke-width: 1.0;"/><!--MD5=[010dcd3c7b926a790dd834671ef640fe]
link vsbpIn to vsbIn--><path d="M571.033,281.557 C590.84,285.397 643.82,295.667 690.751,304.7649 " fill="none" id="vsbpIn-vsbIn" style="stroke: #A80036; stroke-width: 1.0;"/><!--MD5=[0efc682130ae6a0f49fbd49741e1840d]
link vsbpOut to vsbOut--><path d="M571.033,149.81 C591.217,149.333 645.85,148.041 693.426,146.917 " fill="none" id="vsbpOut-vsbOut" style="stroke: #A80036; stroke-width: 1.0;"/><!--MD5=[ee4b7fed0a82bee7cb516760129d1dc2]
link vsbIn to bc--><path d="M775.5,294.374 C775.5,292.698 775.5,291.667 775.5,291.667 C775.5,291.667 775.5,273.763 775.5,264.639 " fill="none" id="vsbIn-&gt;bc" style="stroke: #A80036; stroke-width: 1.0; stroke-dasharray: 7.0,7.0;"/><polygon fill="#A80036" points="775.5,259.626,771.5,268.626,775.5,264.626,779.5,268.626,775.5,259.626" style="stroke: #A80036; stroke-width: 1.0;"/><!--MD5=[86c5c12af525009cbdfc7c538ec7f624]
link bc to vsbOut--><path d="M775.5,206.374 C775.5,204.698 775.5,203.667 775.5,203.667 C775.5,203.667 775.5,185.763 775.5,176.639 " fill="none" id="bc-&gt;vsbOut" style="stroke: #A80036; stroke-width: 1.0; stroke-dasharray: 7.0,7.0;"/><polygon fill="#A80036" points="775.5,171.626,771.5,180.626,775.5,176.626,779.5,180.626,775.5,171.626" style="stroke: #A80036; stroke-width: 1.0;"/><!--MD5=[f363a06e34983ddc366098b51efd8a17]
link vsbIn to vIn1--><path d="M860.135,304.4236 C896.793,297.158 939.579,288.678 975.616,281.536 " fill="none" id="vsbIn-&gt;vIn1" style="stroke: #A80036; stroke-width: 1.0; stroke-dasharray: 7.0,7.0;"/><polygon fill="#A80036" points="980.882,280.492,971.2764,278.3164,975.9772,281.4632,972.8304,286.164,980.882,280.492" style="stroke: #A80036; stroke-width: 1.0;"/><!--MD5=[9cf7bba56298c39a3947768d997f71ae]
link vIn1 to fcIn1--><path d="M1129.16,265.647 C1146.86,265.562 1165.87,265.471 1183.86,265.384 " fill="none" id="vIn1-&gt;fcIn1" style="stroke: #A80036; stroke-width: 1.0; stroke-dasharray: 7.0,7.0;"/><polygon fill="#A80036" points="1188.9,265.36,1179.8773,261.4115,1183.9001,265.3886,1179.923,269.4114,1188.9,265.36" style="stroke: #A80036; stroke-width: 1.0;"/><!--MD5=[e536b37977eb2d9e8936ac89d11011d8]
link fcIn1 to sIn1--><path d="M1340.19,263.938 C1357.85,263.687 1376.78,263.418 1394.74,263.163 " fill="none" id="fcIn1-&gt;sIn1" style="stroke: #A80036; stroke-width: 1.0; stroke-dasharray: 7.0,7.0;"/><polygon fill="#A80036" points="1399.77,263.091,1390.7138,259.22,1394.7705,263.1624,1390.8281,267.2192,1399.77,263.091" style="stroke: #A80036; stroke-width: 1.0;"/><!--MD5=[a117ddecb9c66688c03f6d11cd2ca483]
reverse link vsbOut to vOut1--><path d="M862.582,152.135 C900.521,155.279 944.63,158.935 980.937,161.944 " fill="none" id="vsbOut&lt;-vOut1" style="stroke: #A80036; stroke-width: 1.0; stroke-dasharray: 7.0,7.0;"/><polygon fill="#A80036" points="857.51,151.714,866.149,156.4435,862.4929,152.1269,866.8096,148.4708,857.51,151.714" style="stroke: #A80036; stroke-width: 1.0;"/><!--MD5=[358adb3e075fa7ef09ef99c92e4b2f7f]
reverse link vOut1 to fcOut1--><path d="M1134.18,169.884 C1152.11,170.316 1171.13,170.774 1188.9,171.202 " fill="none" id="vOut1&lt;-fcOut1" style="stroke: #A80036; stroke-width: 1.0; stroke-dasharray: 7.0,7.0;"/><polygon fill="#A80036" points="1129.16,169.763,1138.0542,173.9931,1134.1583,169.8916,1138.2599,165.9957,1129.16,169.763" style="stroke: #A80036; stroke-width: 1.0;"/><!--MD5=[890ce9a3d3a8610e19493143ab0c3b0f]
reverse link fcOut1 to sOut1--><path d="M1345.2,173.378 C1363.08,173.462 1382.02,173.552 1399.77,173.636 " fill="none" id="fcOut1&lt;-sOut1" style="stroke: #A80036; stroke-width: 1.0; stroke-dasharray: 7.0,7.0;"/><polygon fill="#A80036" points="1340.19,173.354,1349.167,177.4054,1345.1899,173.3826,1349.2127,169.4055,1340.19,173.354" style="stroke: #A80036; stroke-width: 1.0;"/><!--MD5=[b82a1b204ae3372ceaa9662bb19d0ec2]
link armIn to vsbpIn--><path d="M433.108,277.005 C476.529,278.022 524.811,279.152 547.643,279.687 " fill="none" id="armIn-&gt;vsbpIn" style="stroke: #A80036; stroke-width: 1.0; stroke-dasharray: 7.0,7.0;"/><polygon fill="#A80036" points="552.881,279.81,543.9772,275.6002,547.8824,279.6929,543.7898,283.598,552.881,279.81" style="stroke: #A80036; stroke-width: 1.0;"/><!--MD5=[b22b4b948aad3c400e51fab38449d116]
reverse link armOut to vsbpOut--><path d="M435.717,151.174 C482.21,150.738 533.54,150.257 552.964,150.075 " fill="none" id="armOut&lt;-vsbpOut" style="stroke: #A80036; stroke-width: 1.0; stroke-dasharray: 7.0,7.0;"/><polygon fill="#A80036" points="430.656,151.221,439.6933,155.136,435.6558,151.1739,439.6179,147.1363,430.656,151.221" style="stroke: #A80036; stroke-width: 1.0;"/><!--MD5=[6382e8b731f1c97230ccd3c6f6c96cca]
link sIn1 to arm2patIn--><path d="M1555.13,262 C1572.28,262 1590.95,262 1609.62,262 " fill="none" id="sIn1-&gt;arm2patIn" style="stroke: #A80036; stroke-width: 1.0; stroke-dasharray: 7.0,7.0;"/><polygon fill="#A80036" points="1614.89,262,1605.89,258,1609.89,262,1605.89,266,1614.89,262" style="stroke: #A80036; stroke-width: 1.0;"/><!--MD5=[a1e66b68f84625509881120cce09d44c]
link arm2patIn to patient--><path d="M1869.18,236.532 C1888.98,232.537 1908,228.698 1923.54,225.561 " fill="none" id="arm2patIn-&gt;patient" style="stroke: #A80036; stroke-width: 1.0; stroke-dasharray: 7.0,7.0;"/><polygon fill="#A80036" points="1928.67,224.525,1919.058,222.378,1923.7681,225.5108,1920.6353,230.2209,1928.67,224.525" style="stroke: #A80036; stroke-width: 1.0;"/><!--MD5=[ef9b6071c14af2e50670e728b6719140]
reverse link sOut1 to arm2patOut--><path d="M1560.21,174 C1578.34,174 1597.96,174 1617.35,174 " fill="none" id="sOut1&lt;-arm2patOut" style="stroke: #A80036; stroke-width: 1.0; stroke-dasharray: 7.0,7.0;"/><polygon fill="#A80036" points="1555.13,174,1564.13,178,1560.13,174,1564.13,170,1555.13,174" style="stroke: #A80036; stroke-width: 1.0;"/><!--MD5=[75294b9f8ded7b06d557f23194b2a4e8]
reverse link arm2patOut to patient--><path d="M1871.77,199.99 C1892.98,204.271 1913.15,208.343 1928.94,211.528 " fill="none" id="arm2patOut&lt;-patient" style="stroke: #A80036; stroke-width: 1.0; stroke-dasharray: 7.0,7.0;"/><polygon fill="#A80036" points="1866.65,198.957,1874.6687,204.6754,1871.5491,199.9565,1876.268,196.8369,1866.65,198.957" style="stroke: #A80036; stroke-width: 1.0;"/><!--MD5=[f6c6d6095b24f80bbf24701b673db55a]
@startuml
left to right direction
skinparam linetype polyline

frame "ibd [System] Ventilator Splitter Box [Air flow] " {

  actor "<b>patient</b>" <<human>> as patient

  component "<b>LTV-1200</b>" <<ventilator>> as ventilator {
    interface "<b>Inspiratory Port</b>" as pIn
    interface "<b>Expiratory Port</b>" as pOut
  }

  component "<b>Inspiratory Arm P/N</b>" <<Inspiratory Arm>> as armIn
  component "<b>Expiratory Arm P/N</b>" <<Expiratory Arm>> as armOut

  pIn ..> armIn
  pOut <.. armOut

  component "<b>Ventilator Splitter Box</b>" <<block>> as vsb {
    component "<b>Inspiratory Section</b>" <<block>> as vsbIn
    component "<b>Expiratory Section</b>" <<block>> as vsbOut
    interface "<b>Inspiratory Port</b>" as vsbpIn
    interface "<b>Expiratory Port</b>" as vsbpOut
    component "<b>Bias Circuit P/N</b>" <<bias circuit>> as bc

    vsbpIn - - vsbIn
    vsbpOut - - vsbOut
    vsbIn .> bc
    bc .> vsbOut

    component "<b>1-Way Valve P/N</b>" <<1-Way valve>> as vIn1
    component "<b>Flow Control P/N</b>" <<flow control>> as fcIn1
    component "<b>Shutoff valve P/N</b>" <<shutoff valve>> as sIn1

    vsbIn ...> vIn1
    vIn1 ..> fcIn1
    fcIn1 ..> sIn1

    component "<b>1-Way Valve P/N</b>" <<1-Way valve>> as vOut1
    component "<b>Flow Control P/N</b>" <<flow control>> as fcOut1
    component "<b>Shutoff valve P/N</b>" <<shutoff valve>> as sOut1

    vsbOut <... vOut1
    vOut1 <.. fcOut1
    fcOut1 <.. sOut1
  }

  armIn ..> vsbpIn
  armOut <.. vsbpOut

  component "<b>Inspiratory Arm to patient P/N</b>" <<Inspiratory Arm>> as arm2patIn
  component "<b>Expiratory Arm to patient P/N</b>" <<Expiratory Arm>> as arm2patOut

  sIn1 ..> arm2patIn
  arm2patIn ..> patient

  sOut1 <.. arm2patOut
  arm2patOut <.. patient
}
@enduml

PlantUML version 1.2020.08(Sun Apr 26 07:08:22 PDT 2020)
(GPL source distribution)
Java Runtime: OpenJDK Runtime Environment
JVM: OpenJDK 64-Bit Server VM
Java Version: 11.0.7+10-post-Ubuntu-3ubuntu1
Operating System: Linux
Default Encoding: UTF-8
Language: en
Country: US
--></g></svg>